<?xml version="1.0" encoding="UTF-8" standalone="no"?>
<!-- Created with Inkscape (http://www.inkscape.org/) -->
<svg
   xmlns:ns0="http://www.iki.fi/pav/software/textext/"
   xmlns:dc="http://purl.org/dc/elements/1.1/"
   xmlns:cc="http://creativecommons.org/ns#"
   xmlns:rdf="http://www.w3.org/1999/02/22-rdf-syntax-ns#"
   xmlns:svg="http://www.w3.org/2000/svg"
   xmlns="http://www.w3.org/2000/svg"
   xmlns:sodipodi="http://sodipodi.sourceforge.net/DTD/sodipodi-0.dtd"
   xmlns:inkscape="http://www.inkscape.org/namespaces/inkscape"
   width="792pt"
   height="612pt"
   id="svg9028"
   sodipodi:version="0.32"
   inkscape:version="0.46"
   sodipodi:docname="frame-property-1.svg"
   inkscape:output_extension="org.inkscape.output.svg.inkscape">
  <sodipodi:namedview
     inkscape:document-units="in"
     pagecolor="#ffffff"
     bordercolor="#666666"
     borderopacity="1.0"
     inkscape:pageopacity="0.0"
     inkscape:pageshadow="2"
     inkscape:zoom="0.65620915"
     inkscape:cx="520.33783"
     inkscape:cy="364.29198"
     inkscape:current-layer="layer1"
     id="namedview9032"
     showgrid="false"
     inkscape:window-width="1024"
     inkscape:window-height="731"
     inkscape:window-x="0"
     inkscape:window-y="6" />
  <defs
     id="defs9030">
    <marker
       inkscape:stockid="Arrow1Lstart"
       orient="auto"
       refY="0.0"
       refX="0.0"
       id="Arrow1Lstart"
       style="overflow:visible">
      <path
         id="path6299"
         d="M 0.0,0.0 L 5.0,-5.0 L -12.5,0.0 L 5.0,5.0 L 0.0,0.0 z "
         style="fill-rule:evenodd;stroke:#000000;stroke-width:1.0pt;marker-start:none"
         transform="scale(0.8) translate(12.5,0)" />
    </marker>
    <marker
       inkscape:stockid="Arrow1Lend"
       orient="auto"
       refY="0.0"
       refX="0.0"
       id="Arrow1Lend"
       style="overflow:visible;">
      <path
         id="path4981"
         d="M 0.0,0.0 L 5.0,-5.0 L -12.5,0.0 L 5.0,5.0 L 0.0,0.0 z "
         style="fill-rule:evenodd;stroke:#000000;stroke-width:1.0pt;marker-start:none;"
         transform="scale(0.8) rotate(180) translate(12.5,0)" />
    </marker>
    <inkscape:perspective
       sodipodi:type="inkscape:persp3d"
       inkscape:vp_x="0 : 382.5 : 1"
       inkscape:vp_y="0 : 1000 : 0"
       inkscape:vp_z="990 : 382.5 : 1"
       inkscape:persp3d-origin="495 : 255 : 1"
       id="perspective9037" />
  </defs>
  <metadata
     id="metadata9034">
    <rdf:RDF>
      <cc:Work
         rdf:about="">
        <dc:format>image/svg+xml</dc:format>
        <dc:type
           rdf:resource="http://purl.org/dc/dcmitype/StillImage" />
      </cc:Work>
    </rdf:RDF>
  </metadata>
  <g
     inkscape:label="Layer 1"
     inkscape:groupmode="layer"
     id="layer1">
    <rect
       ry="34.849827"
       y="575.03601"
       x="12.529222"
       height="107.12391"
       width="361.32797"
       id="rect4584"
       style="fill:none;fill-opacity:1;fill-rule:nonzero;stroke:#000000;stroke-width:1.67595565;stroke-linecap:butt;stroke-linejoin:miter;marker:none;marker-start:none;marker-mid:none;marker-end:none;stroke-miterlimit:10.43299961;stroke-dasharray:none;stroke-dashoffset:0;stroke-opacity:1;visibility:visible;display:inline;overflow:visible;enable-background:accumulate" />
    <g
       style="font-style:normal;font-variant:normal;font-weight:normal;font-stretch:normal;letter-spacing:normal;word-spacing:normal;text-anchor:start;fill:#ff0000;fill-opacity:1;fill-rule:nonzero;stroke:#000000;stroke-width:0;stroke-linecap:butt;stroke-linejoin:miter;marker:none;marker-start:none;marker-mid:none;marker-end:none;stroke-miterlimit:10.43299960999999954;stroke-dasharray:none;stroke-dashoffset:0;stroke-opacity:1;visibility:visible;display:inline;overflow:visible;enable-background:accumulate;opacity:1;color:#000000"
       ns0:preamble="/home/neelk/job-talk/inkscape-commands.tex"
       ns0:text="$\\cellbad{a}{e}$"
       word-spacing="normal"
       letter-spacing="normal"
       font-size-adjust="none"
       font-stretch="normal"
       font-weight="normal"
       font-variant="normal"
       font-style="normal"
       stroke-miterlimit="10.433"
       xml:space="preserve"
       transform="matrix(4.088506,0,0,-4.088506,-859.04514,3529.8426)"
       id="content"
       text-anchor="start"
       stroke-dashoffset="0"
       stroke-dasharray="none"
       stroke-opacity="1"
       stroke-linejoin="miter"
       stroke-linecap="butt"
       stroke="black"
       fill-rule="even-odd"
       fill-opacity="1"
       fill="none">
<path
   id="path6237"
   d="M227.38,710.91 L227.35,710.91 L227.32,710.91 L227.29,710.91 L227.26,710.91 L227.23,710.9 L227.21,710.9 L227.19,710.9 L227.18,710.9 L227.16,710.89 L227.15,710.89 L227.14,710.89 L227.12,710.88 L227.11,710.88 L227.1,710.87 L227.08,710.87 L227.07,710.86 L227.06,710.86 L227.04,710.85 L227.03,710.84 L227.02,710.83 L227,710.82 L226.99,710.81 L226.98,710.8 L226.97,710.79 L226.95,710.78 L226.94,710.77 C226.78,710.62,226.76,710.45,226.76,710.38 C226.76,710.14,226.94,710.03,227.13,710.03 C227.42,710.03,227.69,710.27,227.69,710.67 C227.69,711.16,227.22,711.53,226.51,711.53 C225.17,711.53,223.84,710.1,223.84,708.7 C223.84,707.8,224.42,707.01,225.46,707.01 C226.88,707.01,227.72,708.07,227.72,708.19 C227.72,708.25,227.66,708.32,227.6,708.32 C227.55,708.32,227.53,708.3,227.47,708.22 C226.68,707.23,225.59,707.23,225.48,707.23 C224.85,707.23,224.58,707.72,224.58,708.32 C224.58,708.73,224.78,709.69,225.12,710.31 C225.43,710.88,225.97,711.31,226.52,711.31 C226.86,711.31,227.24,711.18,227.38,710.91 Z "
   style="color:#000000;fill:#ff0000;fill-opacity:1;fill-rule:nonzero;stroke:#000000;stroke-width:0;stroke-linecap:butt;stroke-linejoin:miter;marker:none;marker-start:none;marker-mid:none;marker-end:none;stroke-miterlimit:10.43299960999999954;stroke-dasharray:none;stroke-dashoffset:0;stroke-opacity:1;visibility:visible;display:inline;overflow:visible;enable-background:accumulate"
   stroke-width="0"
   fill="black" />
<path
   id="path6239"
   d="M229.61,709.42 L229.64,709.42 L229.67,709.42 L229.7,709.42 L229.74,709.43 L229.77,709.43 L229.81,709.43 L229.85,709.43 L229.9,709.43 L229.94,709.43 L229.99,709.44 L230.04,709.44 L230.09,709.44 L230.14,709.45 L230.19,709.45 L230.29,709.46 L230.4,709.47 L230.51,709.49 L230.62,709.51 L230.72,709.53 L230.83,709.55 L230.88,709.57 L230.94,709.58 L230.99,709.6 L231.04,709.62 L231.08,709.63 L231.13,709.65 C231.83,709.95,231.88,710.54,231.88,710.68 C231.88,711.12,231.5,711.53,230.81,711.53 V711.31 C231.28,711.31,231.55,711.02,231.55,710.68 C231.55,709.64,229.96,709.64,229.55,709.64 H229.14 C229.53,711.16,230.55,711.31,230.81,711.31 V711.53 C229.71,711.53,228.2,710.56,228.2,708.82 C228.2,707.8,228.79,707.01,229.77,707.01 C231.19,707.01,232.03,708.07,232.03,708.19 C232.03,708.25,231.97,708.32,231.91,708.32 C231.86,708.32,231.84,708.3,231.78,708.22 C230.99,707.23,229.91,707.23,229.79,707.23 C229.01,707.23,228.92,708.07,228.92,708.39 C228.92,708.51,228.93,708.82,229.08,709.42 Z "
   style="color:#000000;fill:#ff0000;fill-opacity:1;fill-rule:nonzero;stroke:#000000;stroke-width:0;stroke-linecap:butt;stroke-linejoin:miter;marker:none;marker-start:none;marker-mid:none;marker-end:none;stroke-miterlimit:10.43299960999999954;stroke-dasharray:none;stroke-dashoffset:0;stroke-opacity:1;visibility:visible;display:inline;overflow:visible;enable-background:accumulate"
   stroke-width="0"
   fill="black" />
<path
   id="path6241"
   d="M234.95,713.93 L234.95,713.93 L234.95,713.93 L234.95,713.93 L234.95,713.93 L234.95,713.93 L234.95,713.94 L234.95,713.94 L234.95,713.94 L234.95,713.95 L234.95,713.95 L234.95,713.96 L234.94,713.96 L234.94,713.97 L234.94,713.97 L234.94,713.98 L234.94,713.98 L234.93,713.99 L234.93,713.99 L234.93,714 L234.92,714 L234.92,714 L234.92,714.01 L234.91,714.01 L234.91,714.01 L234.91,714.01 L234.91,714.02 L234.9,714.02 L234.9,714.02 L234.9,714.02 L234.89,714.02 L234.89,714.02 L234.88,714.03 L234.88,714.03 L234.88,714.03 L234.87,714.03 L234.87,714.03 L234.86,714.03 L234.86,714.03 L234.85,714.03 L234.85,714.04 L234.84,714.04 L234.84,714.04 L234.83,714.04 L234.83,714.04 L234.82,714.04 C234.59,714.04,233.86,713.96,233.6,713.94 C233.53,713.93,233.42,713.92,233.42,713.73 C233.42,713.62,233.52,713.62,233.66,713.62 C234.14,713.62,234.15,713.53,234.15,713.45 L234.12,713.25 L232.87,708.27 C232.84,708.16,232.82,708.09,232.82,707.93 C232.82,707.36,233.26,707.01,233.73,707.01 C234.05,707.01,234.3,707.21,234.47,707.57 C234.65,707.95,234.77,708.53,234.77,708.55 C234.77,708.65,234.68,708.65,234.65,708.65 C234.55,708.65,234.54,708.61,234.51,708.47 C234.34,707.82,234.15,707.23,233.76,707.23 C233.46,707.23,233.46,707.55,233.46,707.69 C233.46,707.93,233.47,707.98,233.52,708.17 Z "
   style="color:#000000;fill:#ff0000;fill-opacity:1;fill-rule:nonzero;stroke:#000000;stroke-width:0;stroke-linecap:butt;stroke-linejoin:miter;marker:none;marker-start:none;marker-mid:none;marker-end:none;stroke-miterlimit:10.43299960999999954;stroke-dasharray:none;stroke-dashoffset:0;stroke-opacity:1;visibility:visible;display:inline;overflow:visible;enable-background:accumulate"
   stroke-width="0"
   fill="black" />
<path
   id="path6243"
   d="M238.12,713.93 L238.12,713.93 L238.12,713.93 L238.12,713.93 L238.12,713.93 L238.12,713.93 L238.12,713.94 L238.12,713.94 L238.12,713.94 L238.12,713.95 L238.12,713.95 L238.12,713.96 L238.12,713.96 L238.12,713.97 L238.11,713.97 L238.11,713.98 L238.11,713.98 L238.11,713.99 L238.1,713.99 L238.1,714 L238.1,714 L238.09,714 L238.09,714.01 L238.09,714.01 L238.08,714.01 L238.08,714.01 L238.08,714.02 L238.07,714.02 L238.07,714.02 L238.07,714.02 L238.06,714.02 L238.06,714.02 L238.06,714.03 L238.05,714.03 L238.05,714.03 L238.04,714.03 L238.04,714.03 L238.04,714.03 L238.03,714.03 L238.03,714.03 L238.02,714.04 L238.02,714.04 L238.01,714.04 L238,714.04 L238,714.04 L237.99,714.04 C237.76,714.04,237.04,713.96,236.78,713.94 C236.7,713.93,236.59,713.92,236.59,713.73 C236.59,713.62,236.69,713.62,236.84,713.62 C237.32,713.62,237.33,713.53,237.33,713.45 L237.3,713.25 L236.04,708.27 C236.01,708.16,235.99,708.09,235.99,707.93 C235.99,707.36,236.43,707.01,236.9,707.01 C237.23,707.01,237.48,707.21,237.65,707.57 C237.82,707.95,237.94,708.53,237.94,708.55 C237.94,708.65,237.85,708.65,237.82,708.65 C237.72,708.65,237.71,708.61,237.68,708.47 C237.51,707.82,237.33,707.23,236.93,707.23 C236.63,707.23,236.63,707.55,236.63,707.69 C236.63,707.93,236.64,707.98,236.69,708.17 Z "
   style="color:#000000;fill:#ff0000;fill-opacity:1;fill-rule:nonzero;stroke:#000000;stroke-width:0;stroke-linecap:butt;stroke-linejoin:miter;marker:none;marker-start:none;marker-mid:none;marker-end:none;stroke-miterlimit:10.43299960999999954;stroke-dasharray:none;stroke-dashoffset:0;stroke-opacity:1;visibility:visible;display:inline;overflow:visible;enable-background:accumulate"
   stroke-width="0"
   fill="black" />
<path
   id="path6245"
   d="M243.93,712.31 L243.94,712.31 L243.94,712.31 L243.95,712.31 L243.96,712.31 L243.97,712.31 L243.98,712.32 L244,712.32 L244.01,712.32 L244.02,712.32 L244.03,712.32 L244.04,712.32 L244.05,712.32 L244.06,712.33 L244.07,712.33 L244.08,712.33 L244.09,712.33 L244.1,712.34 L244.11,712.34 L244.12,712.35 L244.13,712.35 L244.14,712.36 L244.14,712.37 L244.15,712.38 L244.15,712.38 L244.16,712.38 L244.16,712.39 L244.16,712.39 L244.17,712.4 L244.17,712.4 L244.17,712.41 L244.17,712.41 L244.18,712.42 L244.18,712.43 L244.18,712.43 L244.18,712.44 L244.18,712.44 L244.18,712.45 L244.18,712.46 L244.18,712.47 L244.18,712.47 L244.18,712.48 C244.18,712.66,244.02,712.66,243.93,712.66 H239.73 C239.63,712.66,239.47,712.66,239.47,712.48 C239.47,712.31,239.64,712.31,239.73,712.31 Z "
   style="color:#000000;fill:#ff0000;fill-opacity:1;fill-rule:nonzero;stroke:#000000;stroke-width:0;stroke-linecap:butt;stroke-linejoin:miter;marker:none;marker-start:none;marker-mid:none;marker-end:none;stroke-miterlimit:10.43299960999999954;stroke-dasharray:none;stroke-dashoffset:0;stroke-opacity:1;visibility:visible;display:inline;overflow:visible;enable-background:accumulate"
   stroke-width="0"
   fill="black" />
<path
   id="path6247"
   d="M248.74,704.73 L248.74,704.74 L248.74,704.74 L248.74,704.75 L248.74,704.75 L248.74,704.75 L248.74,704.75 L248.74,704.76 L248.74,704.76 L248.74,704.77 L248.73,704.77 L248.73,704.77 L248.73,704.78 L248.73,704.78 L248.72,704.79 L248.72,704.79 L248.71,704.8 L248.71,704.81 L248.7,704.81 L248.7,704.82 L248.69,704.82 L248.69,704.83 L248.69,704.83 L248.68,704.84 L248.68,704.84 L248.68,704.84 L248.67,704.85 L248.67,704.85 L248.66,704.86 L248.66,704.86 L248.65,704.87 L248.65,704.88 L248.64,704.88 L248.64,704.89 L248.63,704.89 L248.62,704.9 L248.62,704.91 L248.61,704.91 L248.6,704.92 L248.6,704.93 L248.59,704.94 L248.58,704.94 L248.57,704.95 C247.33,706.21,247.01,708.09,247.01,709.61 C247.01,711.35,247.39,713.08,248.61,714.33 C248.74,714.45,248.74,714.47,248.74,714.49 C248.74,714.57,248.7,714.59,248.64,714.59 C248.54,714.59,247.65,713.92,247.06,712.65 C246.55,711.56,246.43,710.45,246.43,709.61 C246.43,708.84,246.54,707.63,247.09,706.51 C247.69,705.28,248.54,704.63,248.64,704.63 C248.7,704.63,248.74,704.66,248.74,704.73 Z "
   style="color:#000000;fill:#ff0000;fill-opacity:1;fill-rule:nonzero;stroke:#000000;stroke-width:0;stroke-linecap:butt;stroke-linejoin:miter;marker:none;marker-start:none;marker-mid:none;marker-end:none;stroke-miterlimit:10.43299960999999954;stroke-dasharray:none;stroke-dashoffset:0;stroke-opacity:1;visibility:visible;display:inline;overflow:visible;enable-background:accumulate"
   stroke-width="0"
   fill="black" />
<path
   id="path6249"
   d="M253.04,710.89 L253.02,710.92 L253,710.96 L252.99,710.99 L252.97,711.02 L252.95,711.05 L252.93,711.08 L252.9,711.11 L252.88,711.14 L252.86,711.17 L252.84,711.2 L252.81,711.23 L252.79,711.25 L252.76,711.28 L252.74,711.3 L252.71,711.32 L252.68,711.35 L252.65,711.37 L252.62,711.39 L252.59,711.4 L252.56,711.42 L252.53,711.44 L252.5,711.45 L252.46,711.47 L252.43,711.48 L252.39,711.49 L252.36,711.5 L252.32,711.51 L252.28,711.51 L252.24,711.52 L252.2,711.52 L252.16,711.53 L252.12,711.53 L252.13,711.31 C252.78,711.31,252.92,710.49,252.92,710.43 C252.92,710.37,252.9,710.31,252.89,710.26 L252.39,708.31 C252.34,708.13,252.34,708.11,252.19,707.94 C251.75,707.39,251.35,707.23,251.07,707.23 C250.57,707.23,250.43,707.78,250.43,708.17 C250.43,708.67,250.75,709.89,250.98,710.35 C251.29,710.94,251.73,711.31,252.13,711.31 L252.12,711.53 C250.96,711.53,249.72,710.06,249.72,708.61 C249.72,707.67,250.27,707.01,251.05,707.01 C251.24,707.01,251.74,707.05,252.34,707.76 C252.42,707.34,252.77,707.01,253.25,707.01 C253.6,707.01,253.83,707.24,253.99,707.56 C254.15,707.92,254.28,708.53,254.28,708.55 C254.28,708.65,254.19,708.65,254.16,708.65 C254.07,708.65,254.05,708.61,254.02,708.47 C253.85,707.82,253.68,707.23,253.27,707.23 C253,707.23,252.97,707.49,252.97,707.69 C252.97,707.91,252.99,707.99,253.1,708.43 C253.21,708.85,253.23,708.95,253.32,709.32 C253.49,709.96,253.53,710.15,253.68,710.72 C253.75,711,253.75,711.02,253.75,711.06 C253.75,711.23,253.63,711.33,253.46,711.33 C253.22,711.33,253.07,711.11,253.04,710.89 Z "
   style="color:#000000;fill:#ff0000;fill-opacity:1;fill-rule:nonzero;stroke:#000000;stroke-width:0;stroke-linecap:butt;stroke-linejoin:miter;marker:none;marker-start:none;marker-mid:none;marker-end:none;stroke-miterlimit:10.43299960999999954;stroke-dasharray:none;stroke-dashoffset:0;stroke-opacity:1;visibility:visible;display:inline;overflow:visible;enable-background:accumulate"
   stroke-width="0"
   fill="black" />
<path
   id="path6251"
   d="M256.61,707.13 L256.61,707.19 L256.61,707.25 L256.6,707.31 L256.6,707.37 L256.59,707.42 L256.58,707.47 L256.58,707.52 L256.57,707.57 L256.55,707.62 L256.54,707.67 L256.53,707.71 L256.51,707.75 L256.49,707.79 L256.48,707.83 L256.46,707.87 L256.44,707.9 L256.42,707.94 L256.39,707.97 L256.37,707.99 L256.34,708.02 L256.32,708.05 L256.29,708.07 L256.26,708.09 L256.24,708.11 L256.21,708.12 L256.18,708.14 L256.14,708.15 L256.11,708.16 L256.08,708.17 L256.04,708.17 L256.01,708.18 L255.97,708.18 C255.64,708.18,255.44,707.93,255.44,707.65 C255.44,707.38,255.64,707.12,255.97,707.12 C256.09,707.12,256.22,707.16,256.32,707.25 C256.35,707.27,256.36,707.28,256.37,707.28 C256.38,707.28,256.39,707.27,256.39,707.13 C256.39,706.4,256.04,705.8,255.71,705.47 C255.6,705.36,255.6,705.34,255.6,705.31 C255.6,705.24,255.65,705.2,255.7,705.2 C255.81,705.2,256.61,705.97,256.61,707.13 Z "
   style="color:#000000;fill:#ff0000;fill-opacity:1;fill-rule:nonzero;stroke:#000000;stroke-width:0;stroke-linecap:butt;stroke-linejoin:miter;marker:none;marker-start:none;marker-mid:none;marker-end:none;stroke-miterlimit:10.43299960999999954;stroke-dasharray:none;stroke-dashoffset:0;stroke-opacity:1;visibility:visible;display:inline;overflow:visible;enable-background:accumulate"
   stroke-width="0"
   fill="black" />
<path
   id="path6253"
   d="M260.88,709.42 L260.91,709.42 L260.94,709.42 L260.98,709.42 L261.01,709.43 L261.05,709.43 L261.09,709.43 L261.13,709.43 L261.17,709.43 L261.22,709.43 L261.26,709.44 L261.31,709.44 L261.36,709.44 L261.41,709.45 L261.46,709.45 L261.57,709.46 L261.67,709.47 L261.78,709.49 L261.89,709.51 L262,709.53 L262.11,709.55 L262.16,709.57 L262.21,709.58 L262.26,709.6 L262.31,709.62 L262.36,709.63 L262.41,709.65 C263.11,709.95,263.15,710.54,263.15,710.68 C263.15,711.12,262.78,711.53,262.09,711.53 V711.31 C262.56,711.31,262.83,711.02,262.83,710.68 C262.83,709.64,261.23,709.64,260.82,709.64 H260.42 C260.8,711.16,261.83,711.31,262.09,711.31 V711.53 C260.98,711.53,259.48,710.56,259.48,708.82 C259.48,707.8,260.07,707.01,261.04,707.01 C262.47,707.01,263.3,708.07,263.3,708.19 C263.3,708.25,263.24,708.32,263.18,708.32 C263.14,708.32,263.11,708.3,263.05,708.22 C262.27,707.23,261.18,707.23,261.06,707.23 C260.29,707.23,260.2,708.07,260.2,708.39 C260.2,708.51,260.21,708.82,260.36,709.42 Z "
   style="color:#000000;fill:#ff0000;fill-opacity:1;fill-rule:nonzero;stroke:#000000;stroke-width:0;stroke-linecap:butt;stroke-linejoin:miter;marker:none;marker-start:none;marker-mid:none;marker-end:none;stroke-miterlimit:10.43299960999999954;stroke-dasharray:none;stroke-dashoffset:0;stroke-opacity:1;visibility:visible;display:inline;overflow:visible;enable-background:accumulate"
   stroke-width="0"
   fill="black" />
<path
   id="path6255"
   d="M265.68,707.13 L265.68,707.19 L265.67,707.25 L265.67,707.31 L265.67,707.37 L265.66,707.42 L265.65,707.47 L265.64,707.52 L265.63,707.57 L265.62,707.62 L265.61,707.67 L265.59,707.71 L265.58,707.75 L265.56,707.79 L265.54,707.83 L265.52,707.87 L265.5,707.9 L265.48,707.94 L265.46,707.97 L265.44,707.99 L265.41,708.02 L265.39,708.05 L265.36,708.07 L265.33,708.09 L265.3,708.11 L265.27,708.12 L265.24,708.14 L265.21,708.15 L265.18,708.16 L265.15,708.17 L265.11,708.17 L265.08,708.18 L265.04,708.18 C264.71,708.18,264.51,707.93,264.51,707.65 C264.51,707.38,264.71,707.12,265.04,707.12 C265.16,707.12,265.29,707.16,265.39,707.25 C265.42,707.27,265.43,707.28,265.44,707.28 C265.45,707.28,265.46,707.27,265.46,707.13 C265.46,706.4,265.11,705.8,264.78,705.47 C264.67,705.36,264.67,705.34,264.67,705.31 C264.67,705.24,264.72,705.2,264.77,705.2 C264.88,705.2,265.68,705.97,265.68,707.13 Z "
   style="color:#000000;fill:#ff0000;fill-opacity:1;fill-rule:nonzero;stroke:#000000;stroke-width:0;stroke-linecap:butt;stroke-linejoin:miter;marker:none;marker-start:none;marker-mid:none;marker-end:none;stroke-miterlimit:10.43299960999999954;stroke-dasharray:none;stroke-dashoffset:0;stroke-opacity:1;visibility:visible;display:inline;overflow:visible;enable-background:accumulate"
   stroke-width="0"
   fill="black" />
<path
   id="path6257"
   d="M274.67,709.41 L274.69,709.41 L274.72,709.41 L274.75,709.42 L274.76,709.42 L274.78,709.42 L274.79,709.42 L274.8,709.42 L274.82,709.42 L274.83,709.42 L274.84,709.43 L274.86,709.43 L274.87,709.43 L274.88,709.44 L274.89,709.44 L274.91,709.45 L274.92,709.46 L274.93,709.46 L274.94,709.47 L274.95,709.48 L274.95,709.49 L274.96,709.49 L274.96,709.5 L274.97,709.5 L274.97,709.51 L274.97,709.51 L274.98,709.52 L274.98,709.53 L274.98,709.53 L274.98,709.54 L274.99,709.55 L274.99,709.55 L274.99,709.56 L274.99,709.57 L274.99,709.58 L274.99,709.59 L274.99,709.59 L274.99,709.6 L274.99,709.61 C274.99,709.81,274.8,709.81,274.67,709.81 H269.24 C269.1,709.81,268.91,709.81,268.91,709.61 C268.91,709.41,269.1,709.41,269.24,709.41 Z "
   style="color:#000000;fill:#ff0000;fill-opacity:1;fill-rule:nonzero;stroke:#000000;stroke-width:0;stroke-linecap:butt;stroke-linejoin:miter;marker:none;marker-start:none;marker-mid:none;marker-end:none;stroke-miterlimit:10.43299960999999954;stroke-dasharray:none;stroke-dashoffset:0;stroke-opacity:1;visibility:visible;display:inline;overflow:visible;enable-background:accumulate"
   stroke-width="0"
   fill="black" />
<path
   id="path6259"
   d="M277.85,707.13 L277.85,707.19 L277.85,707.25 L277.84,707.31 L277.84,707.37 L277.83,707.42 L277.82,707.47 L277.82,707.52 L277.81,707.57 L277.79,707.62 L277.78,707.67 L277.77,707.71 L277.75,707.75 L277.73,707.79 L277.72,707.83 L277.7,707.87 L277.68,707.9 L277.66,707.94 L277.63,707.97 L277.61,707.99 L277.58,708.02 L277.56,708.05 L277.53,708.07 L277.5,708.09 L277.48,708.11 L277.45,708.12 L277.42,708.14 L277.38,708.15 L277.35,708.16 L277.32,708.17 L277.28,708.17 L277.25,708.18 L277.21,708.18 C276.88,708.18,276.68,707.93,276.68,707.65 C276.68,707.38,276.88,707.12,277.21,707.12 C277.33,707.12,277.46,707.16,277.56,707.25 C277.59,707.27,277.6,707.28,277.61,707.28 C277.62,707.28,277.63,707.27,277.63,707.13 C277.63,706.4,277.28,705.8,276.95,705.47 C276.84,705.36,276.84,705.34,276.84,705.31 C276.84,705.24,276.89,705.2,276.94,705.2 C277.05,705.2,277.85,705.97,277.85,707.13 Z "
   style="color:#000000;fill:#ff0000;fill-opacity:1;fill-rule:nonzero;stroke:#000000;stroke-width:0;stroke-linecap:butt;stroke-linejoin:miter;marker:none;marker-start:none;marker-mid:none;marker-end:none;stroke-miterlimit:10.43299960999999954;stroke-dasharray:none;stroke-dashoffset:0;stroke-opacity:1;visibility:visible;display:inline;overflow:visible;enable-background:accumulate"
   stroke-width="0"
   fill="black" />
<path
   id="path6261"
   d="M286.84,709.41 L286.85,709.41 L286.86,709.41 L286.89,709.41 L286.92,709.42 L286.93,709.42 L286.95,709.42 L286.96,709.42 L286.98,709.42 L286.99,709.42 L287,709.42 L287.02,709.43 L287.03,709.43 L287.04,709.43 L287.05,709.44 L287.07,709.44 L287.08,709.45 L287.09,709.46 L287.1,709.46 L287.11,709.47 L287.12,709.48 L287.13,709.49 L287.13,709.49 L287.14,709.5 L287.14,709.5 L287.14,709.51 L287.15,709.51 L287.15,709.52 L287.15,709.53 L287.15,709.53 L287.16,709.54 L287.16,709.55 L287.16,709.55 L287.16,709.56 L287.16,709.57 L287.16,709.58 L287.17,709.59 L287.17,709.59 L287.17,709.6 L287.17,709.61 C287.17,709.81,286.98,709.81,286.84,709.81 H281.41 C281.27,709.81,281.08,709.81,281.08,709.61 C281.08,709.41,281.27,709.41,281.41,709.41 Z "
   style="color:#000000;fill:#ff0000;fill-opacity:1;fill-rule:nonzero;stroke:#000000;stroke-width:0;stroke-linecap:butt;stroke-linejoin:miter;marker:none;marker-start:none;marker-mid:none;marker-end:none;stroke-miterlimit:10.43299960999999954;stroke-dasharray:none;stroke-dashoffset:0;stroke-opacity:1;visibility:visible;display:inline;overflow:visible;enable-background:accumulate"
   stroke-width="0"
   fill="black" />
<path
   id="path6263"
   d="M290.89,709.61 L290.89,709.69 L290.89,709.76 L290.88,709.84 L290.88,709.92 L290.87,710.09 L290.86,710.27 L290.84,710.45 L290.82,710.64 L290.8,710.84 L290.76,711.04 L290.72,711.24 L290.68,711.45 L290.62,711.66 L290.56,711.87 L290.49,712.08 L290.41,712.3 L290.37,712.4 L290.33,712.51 L290.28,712.62 L290.23,712.72 C289.63,713.95,288.77,714.59,288.67,714.59 C288.61,714.59,288.58,714.55,288.58,714.49 C288.58,714.47,288.58,714.45,288.77,714.27 C289.74,713.28,290.31,711.7,290.31,709.61 C290.31,707.91,289.94,706.16,288.7,704.9 C288.58,704.78,288.58,704.76,288.58,704.73 C288.58,704.67,288.61,704.63,288.67,704.63 C288.77,704.63,289.67,705.31,290.26,706.58 C290.77,707.67,290.89,708.78,290.89,709.61 Z "
   style="color:#000000;fill:#ff0000;fill-opacity:1;fill-rule:nonzero;stroke:#000000;stroke-width:0;stroke-linecap:butt;stroke-linejoin:miter;marker:none;marker-start:none;marker-mid:none;marker-end:none;stroke-miterlimit:10.43299960999999954;stroke-dasharray:none;stroke-dashoffset:0;stroke-opacity:1;visibility:visible;display:inline;overflow:visible;enable-background:accumulate"
   stroke-width="0"
   fill="black" />
</g>  </g>
</svg>
