<?xml version="1.0" encoding="UTF-8" standalone="no"?>
<!-- Created with Inkscape (http://www.inkscape.org/) -->
<svg
   xmlns:ns0="http://www.iki.fi/pav/software/textext/"
   xmlns:dc="http://purl.org/dc/elements/1.1/"
   xmlns:cc="http://creativecommons.org/ns#"
   xmlns:rdf="http://www.w3.org/1999/02/22-rdf-syntax-ns#"
   xmlns:svg="http://www.w3.org/2000/svg"
   xmlns="http://www.w3.org/2000/svg"
   xmlns:sodipodi="http://sodipodi.sourceforge.net/DTD/sodipodi-0.dtd"
   xmlns:inkscape="http://www.inkscape.org/namespaces/inkscape"
   width="792pt"
   height="612pt"
   id="svg9028"
   sodipodi:version="0.32"
   inkscape:version="0.46"
   sodipodi:docname="frame-property-2.svg"
   inkscape:output_extension="org.inkscape.output.svg.inkscape">
  <sodipodi:namedview
     inkscape:document-units="in"
     pagecolor="#ffffff"
     bordercolor="#666666"
     borderopacity="1.0"
     inkscape:pageopacity="0.0"
     inkscape:pageshadow="2"
     inkscape:zoom="0.65620915"
     inkscape:cx="520.33783"
     inkscape:cy="364.29198"
     inkscape:current-layer="layer1"
     id="namedview9032"
     showgrid="false"
     inkscape:window-width="1024"
     inkscape:window-height="731"
     inkscape:window-x="0"
     inkscape:window-y="6" />
  <defs
     id="defs9030">
    <marker
       style="overflow:visible"
       id="Arrow1Lstart"
       refX="0.0"
       refY="0.0"
       orient="auto"
       inkscape:stockid="Arrow1Lstart">
      <path
         transform="scale(0.8) translate(12.5,0)"
         style="fill-rule:evenodd;stroke:#000000;stroke-width:1.0pt;marker-start:none"
         d="M 0.0,0.0 L 5.0,-5.0 L -12.5,0.0 L 5.0,5.0 L 0.0,0.0 z "
         id="path6299" />
    </marker>
    <marker
       style="overflow:visible;"
       id="Arrow1Lend"
       refX="0.0"
       refY="0.0"
       orient="auto"
       inkscape:stockid="Arrow1Lend">
      <path
         transform="scale(0.8) rotate(180) translate(12.5,0)"
         style="fill-rule:evenodd;stroke:#000000;stroke-width:1.0pt;marker-start:none;"
         d="M 0.0,0.0 L 5.0,-5.0 L -12.5,0.0 L 5.0,5.0 L 0.0,0.0 z "
         id="path4981" />
    </marker>
    <inkscape:perspective
       id="perspective9037"
       inkscape:persp3d-origin="495 : 255 : 1"
       inkscape:vp_z="990 : 382.5 : 1"
       inkscape:vp_y="0 : 1000 : 0"
       inkscape:vp_x="0 : 382.5 : 1"
       sodipodi:type="inkscape:persp3d" />
  </defs>
  <metadata
     id="metadata9034">
    <rdf:RDF>
      <cc:Work
         rdf:about="">
        <dc:format>image/svg+xml</dc:format>
        <dc:type
           rdf:resource="http://purl.org/dc/dcmitype/StillImage" />
      </cc:Work>
    </rdf:RDF>
  </metadata>
  <g
     id="layer1"
     inkscape:groupmode="layer"
     inkscape:label="Layer 1">
    <rect
       style="fill:none;fill-opacity:1;fill-rule:nonzero;stroke:#000000;stroke-width:1.67595565;stroke-linecap:butt;stroke-linejoin:miter;marker:none;marker-start:none;marker-mid:none;marker-end:none;stroke-miterlimit:10.43299961;stroke-dasharray:none;stroke-dashoffset:0;stroke-opacity:1;visibility:visible;display:inline;overflow:visible;enable-background:accumulate"
       id="rect4584"
       width="361.32797"
       height="107.12391"
       x="12.529222"
       y="575.03601"
       ry="34.849827" />
    <g
       style="font-style:normal;font-variant:normal;font-weight:normal;font-stretch:normal;letter-spacing:normal;word-spacing:normal;text-anchor:start;fill:#0000ff;fill-opacity:1;fill-rule:nonzero;stroke:#000000;stroke-width:0;stroke-linecap:butt;stroke-linejoin:miter;marker:none;marker-start:none;marker-mid:none;marker-end:none;stroke-miterlimit:10.43299960999999954;stroke-dasharray:none;stroke-dashoffset:0;stroke-opacity:1;visibility:visible;display:inline;overflow:visible;enable-background:accumulate;opacity:1;color:#000000"
       ns0:preamble="/home/neelk/job-talk/inkscape-commands.tex"
       ns0:text="$\\cellok{a}{e}{v}{\\emptyset}$"
       text-anchor="start"
       word-spacing="normal"
       letter-spacing="normal"
       font-size-adjust="none"
       font-stretch="normal"
       font-weight="normal"
       font-variant="normal"
       font-style="normal"
       fill-opacity="1"
       fill-rule="even-odd"
       fill="none"
       stroke-opacity="1"
       stroke-dashoffset="0"
       stroke-dasharray="none"
       stroke-miterlimit="10.433"
       stroke-linejoin="miter"
       stroke-linecap="butt"
       stroke="black"
       xml:space="preserve"
       transform="matrix(4.088506,0,0,-4.088506,-859.04514,3529.8426)"
       id="content">
<path
   id="path2536"
   fill="black"
   stroke-width="0"
   d="M227.38,710.91 L227.35,710.91 L227.32,710.91 L227.29,710.91 L227.26,710.91 L227.23,710.9 L227.21,710.9 L227.19,710.9 L227.18,710.9 L227.16,710.89 L227.15,710.89 L227.14,710.89 L227.12,710.88 L227.11,710.88 L227.1,710.87 L227.08,710.87 L227.07,710.86 L227.06,710.86 L227.04,710.85 L227.03,710.84 L227.02,710.83 L227,710.82 L226.99,710.81 L226.98,710.8 L226.97,710.79 L226.95,710.78 L226.94,710.77 C226.78,710.62,226.76,710.45,226.76,710.38 C226.76,710.14,226.94,710.03,227.13,710.03 C227.42,710.03,227.69,710.27,227.69,710.67 C227.69,711.16,227.22,711.53,226.51,711.53 C225.17,711.53,223.84,710.1,223.84,708.7 C223.84,707.8,224.42,707.01,225.46,707.01 C226.88,707.01,227.72,708.07,227.72,708.19 C227.72,708.25,227.66,708.32,227.6,708.32 C227.55,708.32,227.53,708.3,227.47,708.22 C226.68,707.23,225.59,707.23,225.48,707.23 C224.85,707.23,224.58,707.72,224.58,708.32 C224.58,708.73,224.78,709.69,225.12,710.31 C225.43,710.88,225.97,711.31,226.52,711.31 C226.86,711.31,227.24,711.18,227.38,710.91 Z "
   style="fill:#0000ff;fill-opacity:1" />
<path
   id="path2538"
   fill="black"
   stroke-width="0"
   d="M229.61,709.42 L229.64,709.42 L229.67,709.42 L229.7,709.42 L229.74,709.43 L229.77,709.43 L229.81,709.43 L229.85,709.43 L229.9,709.43 L229.94,709.43 L229.99,709.44 L230.04,709.44 L230.09,709.44 L230.14,709.45 L230.19,709.45 L230.29,709.46 L230.4,709.47 L230.51,709.49 L230.62,709.51 L230.72,709.53 L230.83,709.55 L230.88,709.57 L230.94,709.58 L230.99,709.6 L231.04,709.62 L231.08,709.63 L231.13,709.65 C231.83,709.95,231.88,710.54,231.88,710.68 C231.88,711.12,231.5,711.53,230.81,711.53 V711.31 C231.28,711.31,231.55,711.02,231.55,710.68 C231.55,709.64,229.96,709.64,229.55,709.64 H229.14 C229.53,711.16,230.55,711.31,230.81,711.31 V711.53 C229.71,711.53,228.2,710.56,228.2,708.82 C228.2,707.8,228.79,707.01,229.77,707.01 C231.19,707.01,232.03,708.07,232.03,708.19 C232.03,708.25,231.97,708.32,231.91,708.32 C231.86,708.32,231.84,708.3,231.78,708.22 C230.99,707.23,229.91,707.23,229.79,707.23 C229.01,707.23,228.92,708.07,228.92,708.39 C228.92,708.51,228.93,708.82,229.08,709.42 Z "
   style="fill:#0000ff;fill-opacity:1" />
<path
   id="path2540"
   fill="black"
   stroke-width="0"
   d="M234.95,713.93 L234.95,713.93 L234.95,713.93 L234.95,713.93 L234.95,713.93 L234.95,713.93 L234.95,713.94 L234.95,713.94 L234.95,713.94 L234.95,713.95 L234.95,713.95 L234.95,713.96 L234.94,713.96 L234.94,713.97 L234.94,713.97 L234.94,713.98 L234.94,713.98 L234.93,713.99 L234.93,713.99 L234.93,714 L234.92,714 L234.92,714 L234.92,714.01 L234.91,714.01 L234.91,714.01 L234.91,714.01 L234.91,714.02 L234.9,714.02 L234.9,714.02 L234.9,714.02 L234.89,714.02 L234.89,714.02 L234.88,714.03 L234.88,714.03 L234.88,714.03 L234.87,714.03 L234.87,714.03 L234.86,714.03 L234.86,714.03 L234.85,714.03 L234.85,714.04 L234.84,714.04 L234.84,714.04 L234.83,714.04 L234.83,714.04 L234.82,714.04 C234.59,714.04,233.86,713.96,233.6,713.94 C233.53,713.93,233.42,713.92,233.42,713.73 C233.42,713.62,233.52,713.62,233.66,713.62 C234.14,713.62,234.15,713.53,234.15,713.45 L234.12,713.25 L232.87,708.27 C232.84,708.16,232.82,708.09,232.82,707.93 C232.82,707.36,233.26,707.01,233.73,707.01 C234.05,707.01,234.3,707.21,234.47,707.57 C234.65,707.95,234.77,708.53,234.77,708.55 C234.77,708.65,234.68,708.65,234.65,708.65 C234.55,708.65,234.54,708.61,234.51,708.47 C234.34,707.82,234.15,707.23,233.76,707.23 C233.46,707.23,233.46,707.55,233.46,707.69 C233.46,707.93,233.47,707.98,233.52,708.17 Z "
   style="fill:#0000ff;fill-opacity:1" />
<path
   id="path2542"
   fill="black"
   stroke-width="0"
   d="M238.12,713.93 L238.12,713.93 L238.12,713.93 L238.12,713.93 L238.12,713.93 L238.12,713.93 L238.12,713.94 L238.12,713.94 L238.12,713.94 L238.12,713.95 L238.12,713.95 L238.12,713.96 L238.12,713.96 L238.12,713.97 L238.11,713.97 L238.11,713.98 L238.11,713.98 L238.11,713.99 L238.1,713.99 L238.1,714 L238.1,714 L238.09,714 L238.09,714.01 L238.09,714.01 L238.08,714.01 L238.08,714.01 L238.08,714.02 L238.07,714.02 L238.07,714.02 L238.07,714.02 L238.06,714.02 L238.06,714.02 L238.06,714.03 L238.05,714.03 L238.05,714.03 L238.04,714.03 L238.04,714.03 L238.04,714.03 L238.03,714.03 L238.03,714.03 L238.02,714.04 L238.02,714.04 L238.01,714.04 L238,714.04 L238,714.04 L237.99,714.04 C237.76,714.04,237.04,713.96,236.78,713.94 C236.7,713.93,236.59,713.92,236.59,713.73 C236.59,713.62,236.69,713.62,236.84,713.62 C237.32,713.62,237.33,713.53,237.33,713.45 L237.3,713.25 L236.04,708.27 C236.01,708.16,235.99,708.09,235.99,707.93 C235.99,707.36,236.43,707.01,236.9,707.01 C237.23,707.01,237.48,707.21,237.65,707.57 C237.82,707.95,237.94,708.53,237.94,708.55 C237.94,708.65,237.85,708.65,237.82,708.65 C237.72,708.65,237.71,708.61,237.68,708.47 C237.51,707.82,237.33,707.23,236.93,707.23 C236.63,707.23,236.63,707.55,236.63,707.69 C236.63,707.93,236.64,707.98,236.69,708.17 Z "
   style="fill:#0000ff;fill-opacity:1" />
<path
   id="path2544"
   fill="black"
   stroke-width="0"
   d="M241.95,712.31 H244.08 C244.17,712.31,244.34,712.31,244.34,712.48 C244.34,712.66,244.18,712.66,244.08,712.66 H241.95 V714.8 C241.95,714.89,241.95,715.05,241.78,715.05 C241.6,715.05,241.6,714.89,241.6,714.8 V712.66 H239.46 C239.37,712.66,239.21,712.66,239.21,712.49 C239.21,712.31,239.37,712.31,239.46,712.31 H241.6 V710.17 C241.6,710.08,241.6,709.91,241.77,709.91 C241.95,709.91,241.95,710.08,241.95,710.17 Z "
   style="fill:#0000ff;fill-opacity:1" />
<path
   id="path2546"
   fill="black"
   stroke-width="0"
   d="M248.63,704.73 L248.63,704.74 L248.63,704.74 L248.63,704.75 L248.63,704.75 L248.63,704.75 L248.63,704.75 L248.63,704.76 L248.62,704.76 L248.62,704.77 L248.62,704.77 L248.62,704.77 L248.62,704.78 L248.61,704.78 L248.61,704.79 L248.6,704.79 L248.6,704.8 L248.59,704.81 L248.59,704.81 L248.59,704.82 L248.58,704.82 L248.58,704.83 L248.58,704.83 L248.57,704.84 L248.57,704.84 L248.56,704.84 L248.56,704.85 L248.55,704.85 L248.55,704.86 L248.54,704.86 L248.54,704.87 L248.53,704.88 L248.53,704.88 L248.52,704.89 L248.52,704.89 L248.51,704.9 L248.5,704.91 L248.5,704.91 L248.49,704.92 L248.48,704.93 L248.48,704.94 L248.47,704.94 L248.46,704.95 C247.21,706.21,246.9,708.09,246.9,709.61 C246.9,711.35,247.27,713.08,248.5,714.33 C248.63,714.45,248.63,714.47,248.63,714.49 C248.63,714.57,248.59,714.59,248.53,714.59 C248.43,714.59,247.53,713.92,246.95,712.65 C246.44,711.56,246.32,710.45,246.32,709.61 C246.32,708.84,246.43,707.63,246.98,706.51 C247.57,705.28,248.43,704.63,248.53,704.63 C248.59,704.63,248.63,704.66,248.63,704.73 Z "
   style="fill:#0000ff;fill-opacity:1" />
<path
   id="path2548"
   fill="black"
   stroke-width="0"
   d="M252.93,710.89 L252.91,710.92 L252.89,710.96 L252.87,710.99 L252.85,711.02 L252.83,711.05 L252.81,711.08 L252.79,711.11 L252.77,711.14 L252.75,711.17 L252.72,711.2 L252.7,711.23 L252.68,711.25 L252.65,711.28 L252.62,711.3 L252.6,711.32 L252.57,711.35 L252.54,711.37 L252.51,711.39 L252.48,711.4 L252.45,711.42 L252.42,711.44 L252.38,711.45 L252.35,711.47 L252.32,711.48 L252.28,711.49 L252.25,711.5 L252.21,711.51 L252.17,711.51 L252.13,711.52 L252.09,711.52 L252.05,711.53 L252.01,711.53 L252.02,711.31 C252.67,711.31,252.81,710.49,252.81,710.43 C252.81,710.37,252.79,710.31,252.78,710.26 L252.28,708.31 C252.23,708.13,252.23,708.11,252.08,707.94 C251.64,707.39,251.23,707.23,250.95,707.23 C250.46,707.23,250.32,707.78,250.32,708.17 C250.32,708.67,250.63,709.89,250.86,710.35 C251.17,710.94,251.62,711.31,252.02,711.31 L252.01,711.53 C250.84,711.53,249.61,710.06,249.61,708.61 C249.61,707.67,250.16,707.01,250.93,707.01 C251.13,707.01,251.63,707.05,252.23,707.76 C252.31,707.34,252.66,707.01,253.13,707.01 C253.48,707.01,253.71,707.24,253.87,707.56 C254.04,707.92,254.17,708.53,254.17,708.55 C254.17,708.65,254.08,708.65,254.05,708.65 C253.95,708.65,253.94,708.61,253.91,708.47 C253.74,707.82,253.56,707.23,253.15,707.23 C252.89,707.23,252.86,707.49,252.86,707.69 C252.86,707.91,252.88,707.99,252.99,708.43 C253.1,708.85,253.12,708.95,253.21,709.32 C253.37,709.96,253.41,710.15,253.56,710.72 C253.63,711,253.63,711.02,253.63,711.06 C253.63,711.23,253.51,711.33,253.34,711.33 C253.1,711.33,252.96,711.11,252.93,710.89 Z "
   style="fill:#0000ff;fill-opacity:1" />
<path
   id="path2550"
   fill="black"
   stroke-width="0"
   d="M256.5,707.13 L256.5,707.19 L256.49,707.25 L256.49,707.31 L256.49,707.37 L256.48,707.42 L256.47,707.47 L256.46,707.52 L256.45,707.57 L256.44,707.62 L256.43,707.67 L256.41,707.71 L256.4,707.75 L256.38,707.79 L256.36,707.83 L256.34,707.87 L256.32,707.9 L256.3,707.94 L256.28,707.97 L256.26,707.99 L256.23,708.02 L256.21,708.05 L256.18,708.07 L256.15,708.09 L256.12,708.11 L256.09,708.12 L256.06,708.14 L256.03,708.15 L256,708.16 L255.97,708.17 L255.93,708.17 L255.9,708.18 L255.86,708.18 C255.53,708.18,255.33,707.93,255.33,707.65 C255.33,707.38,255.53,707.12,255.86,707.12 C255.98,707.12,256.11,707.16,256.21,707.25 C256.24,707.27,256.25,707.28,256.26,707.28 C256.27,707.28,256.28,707.27,256.28,707.13 C256.28,706.4,255.93,705.8,255.6,705.47 C255.49,705.36,255.49,705.34,255.49,705.31 C255.49,705.24,255.54,705.2,255.59,705.2 C255.7,705.2,256.5,705.97,256.5,707.13 Z "
   style="fill:#0000ff;fill-opacity:1" />
<path
   id="path2552"
   fill="black"
   stroke-width="0"
   d="M260.77,709.42 L260.8,709.42 L260.83,709.42 L260.86,709.42 L260.9,709.43 L260.94,709.43 L260.98,709.43 L261.02,709.43 L261.06,709.43 L261.11,709.43 L261.15,709.44 L261.2,709.44 L261.25,709.44 L261.3,709.45 L261.35,709.45 L261.45,709.46 L261.56,709.47 L261.67,709.49 L261.78,709.51 L261.89,709.53 L261.99,709.55 L262.05,709.57 L262.1,709.58 L262.15,709.6 L262.2,709.62 L262.25,709.63 L262.3,709.65 C262.99,709.95,263.04,710.54,263.04,710.68 C263.04,711.12,262.66,711.53,261.98,711.53 V711.31 C262.44,711.31,262.71,711.02,262.71,710.68 C262.71,709.64,261.12,709.64,260.71,709.64 H260.3 C260.69,711.16,261.72,711.31,261.98,711.31 V711.53 C260.87,711.53,259.37,710.56,259.37,708.82 C259.37,707.8,259.95,707.01,260.93,707.01 C262.36,707.01,263.19,708.07,263.19,708.19 C263.19,708.25,263.13,708.32,263.07,708.32 C263.02,708.32,263,708.3,262.94,708.22 C262.15,707.23,261.07,707.23,260.95,707.23 C260.17,707.23,260.08,708.07,260.08,708.39 C260.08,708.51,260.09,708.82,260.24,709.42 Z "
   style="fill:#0000ff;fill-opacity:1" />
<path
   id="path2554"
   fill="black"
   stroke-width="0"
   d="M265.57,707.13 L265.56,707.19 L265.56,707.25 L265.56,707.31 L265.55,707.37 L265.55,707.42 L265.54,707.47 L265.53,707.52 L265.52,707.57 L265.51,707.62 L265.5,707.67 L265.48,707.71 L265.47,707.75 L265.45,707.79 L265.43,707.83 L265.41,707.87 L265.39,707.9 L265.37,707.94 L265.35,707.97 L265.32,707.99 L265.3,708.02 L265.27,708.05 L265.25,708.07 L265.22,708.09 L265.19,708.11 L265.16,708.12 L265.13,708.14 L265.1,708.15 L265.07,708.16 L265.03,708.17 L265,708.17 L264.96,708.18 L264.93,708.18 C264.6,708.18,264.4,707.93,264.4,707.65 C264.4,707.38,264.6,707.12,264.93,707.12 C265.05,707.12,265.18,707.16,265.28,707.25 C265.31,707.27,265.32,707.28,265.33,707.28 C265.34,707.28,265.35,707.27,265.35,707.13 C265.35,706.4,265,705.8,264.67,705.47 C264.56,705.36,264.56,705.34,264.56,705.31 C264.56,705.24,264.61,705.2,264.66,705.2 C264.77,705.2,265.57,705.97,265.57,707.13 Z "
   style="fill:#0000ff;fill-opacity:1" />
<path
   id="path2556"
   fill="black"
   stroke-width="0"
   d="M272.63,710.83 L272.63,710.85 L272.63,710.88 L272.63,710.9 L272.63,710.93 L272.63,710.95 L272.62,710.97 L272.62,710.99 L272.62,711.01 L272.61,711.05 L272.6,711.09 L272.6,711.13 L272.59,711.16 L272.58,711.2 L272.56,711.23 L272.55,711.26 L272.54,711.29 L272.52,711.31 L272.51,711.34 L272.49,711.36 L272.48,711.38 L272.46,711.4 L272.44,711.42 L272.43,711.43 L272.41,711.45 L272.39,711.46 L272.37,711.47 L272.35,711.48 L272.34,711.49 L272.32,711.5 L272.3,711.51 L272.28,711.51 L272.26,711.52 L272.24,711.52 L272.23,711.52 L272.21,711.53 L272.19,711.53 C271.94,711.53,271.7,711.27,271.7,711.05 C271.7,710.92,271.75,710.86,271.86,710.75 C272.07,710.55,272.2,710.29,272.2,709.93 C272.2,709.51,271.59,707.23,270.43,707.23 C269.92,707.23,269.69,707.58,269.69,708.1 C269.69,708.66,269.96,709.38,270.27,710.21 C270.34,710.38,270.39,710.52,270.39,710.71 C270.39,711.16,270.07,711.53,269.57,711.53 C268.64,711.53,268.26,710.08,268.26,709.99 C268.26,709.89,268.36,709.89,268.38,709.89 C268.48,709.89,268.49,709.91,268.54,710.07 C268.82,711.08,269.25,711.31,269.54,711.31 C269.62,711.31,269.79,711.31,269.79,710.99 C269.79,710.74,269.69,710.47,269.62,710.29 C269.18,709.14,269.05,708.68,269.05,708.25 C269.05,707.17,269.93,707.01,270.39,707.01 C272.06,707.01,272.63,710.31,272.63,710.83 Z "
   style="fill:#0000ff;fill-opacity:1" />
<path
   id="path2558"
   fill="black"
   stroke-width="0"
   d="M275.17,707.13 L275.17,707.19 L275.17,707.25 L275.17,707.31 L275.16,707.37 L275.15,707.42 L275.15,707.47 L275.14,707.52 L275.13,707.57 L275.12,707.62 L275.1,707.67 L275.09,707.71 L275.07,707.75 L275.06,707.79 L275.04,707.83 L275.02,707.87 L275,707.9 L274.98,707.94 L274.96,707.97 L274.93,707.99 L274.91,708.02 L274.88,708.05 L274.85,708.07 L274.83,708.09 L274.8,708.11 L274.77,708.12 L274.74,708.14 L274.71,708.15 L274.67,708.16 L274.64,708.17 L274.61,708.17 L274.57,708.18 L274.54,708.18 C274.21,708.18,274.01,707.93,274.01,707.65 C274.01,707.38,274.21,707.12,274.54,707.12 C274.65,707.12,274.78,707.16,274.88,707.25 C274.91,707.27,274.92,707.28,274.93,707.28 C274.94,707.28,274.95,707.27,274.95,707.13 C274.95,706.4,274.61,705.8,274.28,705.47 C274.17,705.36,274.17,705.34,274.17,705.31 C274.17,705.24,274.22,705.2,274.27,705.2 C274.38,705.2,275.17,705.97,275.17,707.13 Z "
   style="fill:#0000ff;fill-opacity:1" />
<path
   id="path2560"
   fill="black"
   stroke-width="0"
   d="M281.4,714.43 L281.4,714.44 L281.4,714.44 L281.4,714.44 L281.4,714.44 L281.4,714.44 L281.4,714.44 L281.4,714.44 L281.4,714.45 L281.4,714.45 L281.4,714.45 L281.4,714.45 L281.4,714.45 L281.4,714.46 L281.4,714.46 L281.41,714.47 L281.41,714.47 L281.41,714.48 L281.41,714.49 L281.41,714.49 L281.42,714.5 L281.42,714.51 L281.42,714.52 L281.43,714.54 L281.43,714.55 L281.43,714.56 L281.43,714.56 L281.44,714.57 L281.44,714.58 L281.44,714.58 L281.44,714.59 L281.44,714.59 L281.44,714.59 L281.44,714.6 L281.44,714.6 L281.45,714.6 L281.45,714.6 L281.45,714.61 L281.45,714.61 L281.45,714.61 L281.45,714.61 L281.45,714.61 L281.45,714.61 L281.45,714.61 L281.45,714.61 C281.45,714.72,281.36,714.81,281.25,714.81 C281.1,714.81,281.07,714.71,281.01,714.49 C281,714.47,280.9,714.11,280.88,714.05 C280.76,714.11,280.44,714.26,280.07,714.26 V714.04 C280.27,714.04,280.53,713.98,280.79,713.76 L279.05,707.82 C278.72,708.51,278.72,709.73,278.72,710.68 C278.72,711.49,278.72,712.17,278.86,712.81 C279.05,713.74,279.62,714.04,280.07,714.04 V714.26 C279.51,714.26,278.86,713.96,278.49,713.19 C278.1,712.38,278.05,711.49,278.05,710.56 C278.05,709.95,278.05,708.12,278.92,707.37 C278.73,706.69,278.69,706.57,278.69,706.54 C278.69,706.43,278.78,706.34,278.89,706.34 C279.04,706.34,279.07,706.45,279.13,706.66 C279.14,706.69,279.24,707.05,279.26,707.11 C279.49,706.98,279.79,706.9,280.06,706.9 V707.12 C279.83,707.12,279.6,707.2,279.36,707.41 L281.09,713.36 C281.42,712.78,281.42,711.63,281.42,710.68 C281.42,709.95,281.42,709.22,281.3,708.55 C281.12,707.5,280.59,707.12,280.06,707.12 V706.9 C281.18,706.9,281.62,707.84,281.8,708.32 C282.06,709.02,282.09,709.84,282.09,710.56 C282.09,711.38,282.08,712.94,281.22,713.79 Z "
   style="fill:#0000ff;fill-opacity:1" />
<path
   id="path2562"
   fill="black"
   stroke-width="0"
   d="M285.44,709.61 L285.44,709.69 L285.44,709.76 L285.44,709.84 L285.44,709.92 L285.43,710.09 L285.42,710.27 L285.4,710.45 L285.38,710.64 L285.35,710.84 L285.32,711.04 L285.28,711.24 L285.23,711.45 L285.18,711.66 L285.12,711.87 L285.05,712.08 L284.97,712.3 L284.93,712.4 L284.88,712.51 L284.83,712.62 L284.78,712.72 C284.19,713.95,283.33,714.59,283.23,714.59 C283.17,714.59,283.13,714.55,283.13,714.49 C283.13,714.47,283.13,714.45,283.32,714.27 C284.3,713.28,284.86,711.7,284.86,709.61 C284.86,707.91,284.49,706.16,283.26,704.9 C283.13,704.78,283.13,704.76,283.13,704.73 C283.13,704.67,283.17,704.63,283.23,704.63 C283.33,704.63,284.23,705.31,284.81,706.58 C285.32,707.67,285.44,708.78,285.44,709.61 Z "
   style="fill:#0000ff;fill-opacity:1" />
</g>  </g>
</svg>
