<?xml version="1.0" encoding="UTF-8" standalone="no"?>
<!-- Created with Inkscape (http://www.inkscape.org/) -->
<svg
   xmlns:ns0="http://www.iki.fi/pav/software/textext/"
   xmlns:dc="http://purl.org/dc/elements/1.1/"
   xmlns:cc="http://creativecommons.org/ns#"
   xmlns:rdf="http://www.w3.org/1999/02/22-rdf-syntax-ns#"
   xmlns:svg="http://www.w3.org/2000/svg"
   xmlns="http://www.w3.org/2000/svg"
   xmlns:sodipodi="http://sodipodi.sourceforge.net/DTD/sodipodi-0.dtd"
   xmlns:inkscape="http://www.inkscape.org/namespaces/inkscape"
   width="792pt"
   height="612pt"
   id="svg2383"
   sodipodi:version="0.32"
   inkscape:version="0.46"
   sodipodi:docname="mvc.svg"
   inkscape:output_extension="org.inkscape.output.svg.inkscape">
  <sodipodi:namedview
     inkscape:document-units="in"
     pagecolor="#ffffff"
     bordercolor="#666666"
     borderopacity="1.0"
     inkscape:pageopacity="0.0"
     inkscape:pageshadow="2"
     inkscape:zoom="0.65620915"
     inkscape:cx="495"
     inkscape:cy="382.5"
     inkscape:current-layer="svg2383"
     id="namedview2387"
     showgrid="false"
     inkscape:window-width="1024"
     inkscape:window-height="731"
     inkscape:window-x="0"
     inkscape:window-y="6" />
  <defs
     id="defs2385">
    <marker
       style="overflow:visible;"
       id="Arrow1Lend"
       refX="0.0"
       refY="0.0"
       orient="auto"
       inkscape:stockid="Arrow1Lend">
      <path
         transform="scale(0.8) rotate(180) translate(12.5,0)"
         style="fill-rule:evenodd;stroke:#000000;stroke-width:1.0pt;marker-start:none;"
         d="M 0.0,0.0 L 5.0,-5.0 L -12.5,0.0 L 5.0,5.0 L 0.0,0.0 z "
         id="path3550" />
    </marker>
    <inkscape:perspective
       id="perspective2392"
       inkscape:persp3d-origin="495 : 255 : 1"
       inkscape:vp_z="990 : 382.5 : 1"
       inkscape:vp_y="0 : 1000 : 0"
       inkscape:vp_x="0 : 382.5 : 1"
       sodipodi:type="inkscape:persp3d" />
  </defs>
  <metadata
     id="metadata2389">
    <rdf:RDF>
      <cc:Work
         rdf:about="">
        <dc:format>image/svg+xml</dc:format>
        <dc:type
           rdf:resource="http://purl.org/dc/dcmitype/StillImage" />
      </cc:Work>
    </rdf:RDF>
  </metadata>
  <g
     id="layer1"
     inkscape:groupmode="layer"
     inkscape:label="Layer 1" />
  <g
     id="g3524">
    <g
       ns0:preamble="/home/neelk/job-talk/inkscape-commands.tex"
       ns0:text="\\textsc{Controller}\n"
       word-spacing="normal"
       letter-spacing="normal"
       font-size-adjust="none"
       font-stretch="normal"
       font-weight="normal"
       font-variant="normal"
       font-style="normal"
       fill-rule="even-odd"
       stroke-miterlimit="10.433"
       xml:space="preserve"
       transform="matrix(5,0,0,-5,-1043.3371,3916.8382)"
       id="g2655"
       style="font-style:normal;font-variant:normal;font-weight:normal;font-stretch:normal;letter-spacing:normal;word-spacing:normal;text-anchor:start;fill:none;fill-opacity:1;stroke:#000000;stroke-linecap:butt;stroke-linejoin:miter;stroke-miterlimit:10.43299961;stroke-dasharray:none;stroke-dashoffset:0;stroke-opacity:1">
<path
   id="path2657"
   d="M 230.54,713.91 L 230.54,713.92 L 230.54,713.94 L 230.54,713.95 L 230.54,713.97 L 230.54,713.98 L 230.54,713.99 L 230.53,714 L 230.53,714.02 L 230.53,714.03 L 230.53,714.04 L 230.53,714.05 L 230.53,714.06 L 230.53,714.07 L 230.53,714.07 L 230.52,714.08 L 230.52,714.09 L 230.52,714.1 L 230.52,714.1 L 230.51,714.11 L 230.51,714.11 L 230.5,714.12 L 230.5,714.12 L 230.5,714.13 L 230.49,714.13 L 230.48,714.14 L 230.48,714.14 L 230.47,714.14 L 230.46,714.14 L 230.45,714.14 L 230.45,714.15 L 230.44,714.15 L 230.43,714.15 C 230.39,714.15 230.35,714.15 230.27,714.03 L 229.75,713.26 C 229.42,713.6 228.81,714.15 227.79,714.15 C 225.82,714.15 224.15,712.55 224.15,710.53 C 224.15,708.5 225.82,706.9 227.8,706.9 C 229.48,706.9 230.54,708.26 230.54,709.44 C 230.54,709.54 230.54,709.61 230.41,709.61 C 230.3,709.61 230.3,709.55 230.29,709.45 C 230.21,708.01 229.04,707.21 227.93,707.21 C 227.05,707.21 225.18,707.73 225.18,710.52 C 225.18,713.46 227.22,713.84 227.91,713.84 C 228.97,713.84 229.99,713.01 230.22,711.48 C 230.24,711.34 230.25,711.31 230.38,711.31 C 230.54,711.31 230.54,711.34 230.54,711.55 L 230.54,713.91 z"
   style="fill:#000000;stroke-width:0" />
<path
   id="path2659"
   d="M 237.09,709.66 L 237.09,709.8 L 237.08,709.94 L 237.06,710.07 L 237.04,710.21 L 237.01,710.34 L 236.97,710.47 L 236.93,710.59 L 236.88,710.71 L 236.83,710.83 L 236.77,710.95 L 236.71,711.07 L 236.64,711.18 L 236.56,711.28 L 236.49,711.39 L 236.4,711.48 L 236.31,711.58 L 236.22,711.67 L 236.13,711.76 L 236.02,711.84 L 235.92,711.91 L 235.81,711.98 L 235.7,712.05 L 235.59,712.11 L 235.47,712.17 L 235.35,712.22 L 235.22,712.26 L 235.1,712.3 L 234.97,712.33 L 234.84,712.35 L 234.7,712.37 L 234.57,712.38 L 234.43,712.38 L 234.43,712.13 C 235.11,712.13 236.23,711.64 236.23,709.77 C 236.23,707.81 235.14,707.24 234.43,707.24 L 234.43,707.24 C 233.72,707.24 232.63,707.81 232.63,709.77 C 232.63,711.65 233.76,712.13 234.43,712.13 L 234.43,712.38 C 232.95,712.38 231.77,711.15 231.77,709.66 C 231.77,708.16 232.98,706.98 234.43,706.98 C 235.88,706.98 237.09,708.16 237.09,709.66 z"
   style="fill:#000000;stroke-width:0" />
<path
   id="path2661"
   d="M 239.51,712.11 L 239.51,712.13 L 239.5,712.14 L 239.49,712.15 L 239.48,712.16 L 239.48,712.17 L 239.47,712.17 L 239.46,712.18 L 239.46,712.19 L 239.45,712.2 L 239.44,712.2 L 239.44,712.21 L 239.43,712.21 L 239.42,712.22 L 239.42,712.22 L 239.41,712.22 L 239.4,712.23 L 239.4,712.23 L 239.39,712.23 L 239.38,712.23 L 239.37,712.24 L 239.36,712.24 L 239.35,712.24 L 239.34,712.24 L 239.33,712.24 L 239.32,712.24 L 239.31,712.24 L 239.29,712.24 L 239.28,712.24 L 239.27,712.24 L 239.25,712.24 L 239.23,712.24 L 239.22,712.24 L 239.22,712.24 L 238.02,712.24 L 238.02,711.99 C 238.26,711.99 238.54,711.99 238.74,711.92 L 238.74,708.13 C 238.74,707.9 238.74,707.37 238.02,707.37 L 238.02,707.12 C 238.23,707.13 238.68,707.15 238.88,707.15 C 239.03,707.15 239.49,707.14 239.73,707.12 L 239.73,707.37 C 239.02,707.37 239.02,707.9 239.02,708.13 L 239.02,711.7 L 239.12,711.58 L 242.24,707.23 C 242.32,707.12 242.35,707.12 242.41,707.12 C 242.55,707.12 242.55,707.19 242.55,707.38 L 242.55,711.24 C 242.55,711.47 242.55,711.99 243.27,711.99 L 243.27,712.24 C 243.06,712.23 242.61,712.21 242.41,712.21 C 242.26,712.21 241.81,712.22 241.56,712.24 L 241.56,711.99 C 242.27,711.99 242.27,711.47 242.27,711.24 L 242.27,708.28 L 239.51,712.11 z"
   style="fill:#000000;stroke-width:0" />
<path
   id="path2663"
   d="M 249.1,712.18 L 244.2,712.18 L 244.06,710.5 L 244.31,710.5 C 244.4,711.76 244.6,711.93 245.71,711.93 C 246.26,711.93 246.29,711.93 246.29,711.51 L 246.29,707.88 C 246.29,707.48 246.26,707.37 245.49,707.37 L 245.28,707.37 L 245.28,707.12 C 245.67,707.15 246.26,707.15 246.65,707.15 C 247.05,707.15 247.64,707.15 248.03,707.12 L 248.03,707.37 L 247.82,707.37 C 247.05,707.37 247.01,707.48 247.01,707.88 L 247.01,711.51 C 247.01,711.93 247.04,711.93 247.6,711.93 C 248.68,711.93 248.9,711.77 248.99,710.5 L 249.23,710.5 L 249.1,712.18 z"
   style="fill:#000000;stroke-width:0" />
<path
   id="path2665"
   d="M 253.21,709.66 L 253.27,709.68 L 253.34,709.7 L 253.4,709.72 L 253.47,709.74 L 253.53,709.77 L 253.59,709.79 L 253.65,709.82 L 253.71,709.85 L 253.77,709.88 L 253.82,709.91 L 253.88,709.94 L 253.93,709.97 L 253.98,710.01 L 254.03,710.04 L 254.08,710.08 L 254.13,710.12 L 254.17,710.16 L 254.21,710.2 L 254.25,710.24 L 254.29,710.29 L 254.33,710.33 L 254.36,710.38 L 254.39,710.43 L 254.42,710.47 L 254.44,710.52 L 254.46,710.57 L 254.48,710.63 L 254.5,710.68 L 254.51,710.73 L 254.52,710.79 L 254.52,710.84 L 254.52,710.9 C 254.52,711.6 253.64,712.24 252.43,712.24 L 250.04,712.24 L 250.04,711.99 C 250.71,711.99 250.76,711.93 250.76,711.53 L 250.76,707.84 C 250.76,707.43 250.71,707.37 250.04,707.37 L 250.04,707.12 C 250.34,707.13 250.82,707.15 251.1,707.15 C 251.39,707.15 251.9,707.13 252.16,707.12 L 252.16,707.37 C 251.49,707.37 251.45,707.43 251.45,707.84 L 251.45,709.57 L 251.45,709.79 L 251.45,711.57 C 251.45,711.82 251.46,711.91 251.57,711.96 C 251.63,711.99 251.9,711.99 252.08,711.99 C 252.82,711.99 253.67,711.96 253.67,710.9 C 253.67,710.51 253.62,709.79 252.32,709.79 L 252.32,709.79 L 251.45,709.79 L 251.45,709.57 L 252.34,709.57 C 252.59,709.57 252.85,709.56 253.16,709.26 C 253.37,709.03 253.37,708.8 253.37,708.36 C 253.37,707.8 253.37,707.62 253.69,707.31 C 253.87,707.13 254.26,706.98 254.71,706.98 C 255.35,706.98 255.5,707.6 255.5,707.8 C 255.5,707.85 255.5,707.95 255.37,707.95 C 255.26,707.95 255.25,707.86 255.25,707.82 C 255.18,707.21 254.82,707.2 254.75,707.2 C 254.55,707.2 254.46,707.33 254.4,707.44 C 254.32,707.6 254.26,707.88 254.13,708.52 C 254.06,708.87 253.96,709.37 253.21,709.66 z"
   style="fill:#000000;stroke-width:0" />
<path
   id="path2667"
   d="M 261.2,709.66 L 261.2,709.8 L 261.19,709.94 L 261.17,710.07 L 261.15,710.21 L 261.12,710.34 L 261.08,710.47 L 261.04,710.59 L 260.99,710.71 L 260.94,710.83 L 260.88,710.95 L 260.82,711.07 L 260.75,711.18 L 260.68,711.28 L 260.6,711.39 L 260.51,711.48 L 260.43,711.58 L 260.33,711.67 L 260.24,711.76 L 260.14,711.84 L 260.03,711.91 L 259.92,711.98 L 259.81,712.05 L 259.7,712.11 L 259.58,712.17 L 259.46,712.22 L 259.34,712.26 L 259.21,712.3 L 259.08,712.33 L 258.95,712.35 L 258.82,712.37 L 258.68,712.38 L 258.54,712.38 L 258.54,712.13 C 259.22,712.13 260.35,711.64 260.35,709.77 C 260.35,707.81 259.25,707.24 258.54,707.24 L 258.54,707.24 C 257.84,707.24 256.74,707.81 256.74,709.77 C 256.74,711.65 257.88,712.13 258.54,712.13 L 258.54,712.38 C 257.06,712.38 255.88,711.15 255.88,709.66 C 255.88,708.16 257.09,706.98 258.54,706.98 C 260,706.98 261.2,708.16 261.2,709.66 z"
   style="fill:#000000;stroke-width:0" />
<path
   id="path2669"
   d="M 266.42,709.05 L 266.17,709.05 C 266.09,708.26 265.99,707.37 264.59,707.37 L 263.97,707.37 C 263.62,707.37 263.57,707.4 263.57,707.8 L 263.57,711.5 C 263.57,711.99 263.72,711.99 264.46,711.99 L 264.46,712.24 C 264.18,712.23 263.54,712.21 263.24,712.21 C 262.99,712.21 262.49,712.23 262.13,712.24 L 262.13,711.99 C 262.8,711.99 262.85,711.93 262.85,711.53 L 262.85,707.84 C 262.85,707.43 262.8,707.37 262.13,707.37 L 262.13,707.12 L 266.23,707.12 L 266.42,709.05 z"
   style="fill:#000000;stroke-width:0" />
<path
   id="path2671"
   d="M 271.53,709.05 L 271.28,709.05 C 271.2,708.26 271.1,707.37 269.71,707.37 L 269.08,707.37 C 268.73,707.37 268.68,707.4 268.68,707.8 L 268.68,711.5 C 268.68,711.99 268.83,711.99 269.58,711.99 L 269.58,712.24 C 269.29,712.23 268.65,712.21 268.35,712.21 C 268.11,712.21 267.61,712.23 267.25,712.24 L 267.25,711.99 C 267.92,711.99 267.97,711.93 267.97,711.53 L 267.97,707.84 C 267.97,707.43 267.92,707.37 267.25,707.37 L 267.25,707.12 L 271.34,707.12 L 271.53,709.05 z"
   style="fill:#000000;stroke-width:0" />
<path
   id="path2673"
   d="M 277.2,709.05 L 276.96,709.05 C 276.79,707.85 276.55,707.37 275.27,707.37 L 274.2,707.37 C 273.85,707.37 273.8,707.4 273.8,707.8 L 273.8,709.64 L 274.49,709.64 C 275.23,709.64 275.35,709.44 275.35,708.78 L 275.6,708.78 L 275.6,710.76 L 275.35,710.76 C 275.35,710.09 275.23,709.89 274.49,709.89 L 273.8,709.89 L 273.8,711.54 C 273.8,711.93 273.85,711.96 274.2,711.96 L 275.21,711.96 C 276.37,711.96 276.63,711.62 276.74,710.53 L 276.99,710.53 L 276.8,712.21 L 272.36,712.21 L 272.36,711.96 C 273.03,711.96 273.08,711.91 273.08,711.5 L 273.08,707.84 C 273.08,707.43 273.03,707.37 272.36,707.37 L 272.36,707.12 L 276.92,707.12 L 277.2,709.05 z"
   style="fill:#000000;stroke-width:0" />
<path
   id="path2675"
   d="M 281.11,709.66 L 281.17,709.68 L 281.24,709.7 L 281.3,709.72 L 281.37,709.74 L 281.43,709.77 L 281.49,709.79 L 281.55,709.82 L 281.61,709.85 L 281.67,709.88 L 281.72,709.91 L 281.78,709.94 L 281.83,709.97 L 281.88,710.01 L 281.93,710.04 L 281.98,710.08 L 282.03,710.12 L 282.07,710.16 L 282.11,710.2 L 282.15,710.24 L 282.19,710.29 L 282.23,710.33 L 282.26,710.38 L 282.29,710.43 L 282.32,710.47 L 282.34,710.52 L 282.36,710.57 L 282.38,710.63 L 282.4,710.68 L 282.41,710.73 L 282.42,710.79 L 282.42,710.84 L 282.42,710.9 C 282.42,711.6 281.54,712.24 280.33,712.24 L 277.94,712.24 L 277.94,711.99 C 278.61,711.99 278.66,711.93 278.66,711.53 L 278.66,707.84 C 278.66,707.43 278.61,707.37 277.94,707.37 L 277.94,707.12 C 278.24,707.13 278.72,707.15 279,707.15 C 279.29,707.15 279.8,707.13 280.06,707.12 L 280.06,707.37 C 279.39,707.37 279.35,707.43 279.35,707.84 L 279.35,709.57 L 279.35,709.79 L 279.35,711.57 C 279.35,711.82 279.36,711.91 279.46,711.96 C 279.54,711.99 279.8,711.99 279.98,711.99 C 280.72,711.99 281.57,711.96 281.57,710.9 C 281.57,710.51 281.52,709.79 280.22,709.79 L 280.22,709.79 L 279.35,709.79 L 279.35,709.57 L 280.24,709.57 C 280.49,709.57 280.75,709.56 281.06,709.26 C 281.27,709.03 281.27,708.8 281.27,708.36 C 281.27,707.8 281.27,707.62 281.59,707.31 C 281.77,707.13 282.17,706.98 282.61,706.98 C 283.25,706.98 283.4,707.6 283.4,707.8 C 283.4,707.85 283.4,707.95 283.27,707.95 C 283.16,707.95 283.15,707.86 283.15,707.82 C 283.08,707.21 282.72,707.2 282.65,707.2 C 282.45,707.2 282.36,707.33 282.3,707.44 C 282.23,707.6 282.17,707.88 282.04,708.52 C 281.96,708.87 281.86,709.37 281.11,709.66 z"
   style="fill:#000000;stroke-width:0" />
</g>    <rect
       style="fill:none;fill-opacity:1;stroke:#000000;stroke-width:0.99000001000000004;stroke-linecap:round;stroke-linejoin:miter;stroke-miterlimit:4;stroke-dasharray:none;stroke-dashoffset:0;stroke-opacity:1"
       id="rect2717"
       width="344.4024"
       height="70.099602"
       x="53.336655"
       y="329.16336"
       ry="35.049801" />
  </g>
  <g
     transform="translate(164.58167,-42.669323)"
     id="g3493">
    <g
       id="content"
       transform="matrix(5,0,0,-5,-751.079,4101.2273)"
       xml:space="preserve"
       stroke-miterlimit="10.433"
       fill-rule="even-odd"
       font-style="normal"
       font-variant="normal"
       font-weight="normal"
       font-stretch="normal"
       font-size-adjust="none"
       letter-spacing="normal"
       word-spacing="normal"
       ns0:text="\\textsc{View(M, C)}"
       ns0:preamble="/home/neelk/job-talk/inkscape-commands.tex"
       style="font-style:normal;font-variant:normal;font-weight:normal;font-stretch:normal;letter-spacing:normal;word-spacing:normal;text-anchor:start;fill:none;fill-opacity:1;stroke:#000000;stroke-linecap:butt;stroke-linejoin:miter;stroke-miterlimit:10.43299961;stroke-dasharray:none;stroke-dashoffset:0;stroke-opacity:1">
<path
   style="fill:#000000;stroke-width:0"
   d="M 230.09,712.97 L 230.1,713 L 230.11,713.03 L 230.13,713.06 L 230.14,713.08 L 230.16,713.11 L 230.17,713.14 L 230.19,713.16 L 230.2,713.18 L 230.24,713.23 L 230.27,713.27 L 230.31,713.31 L 230.34,713.35 L 230.38,713.38 L 230.42,713.41 L 230.46,713.44 L 230.5,713.46 L 230.54,713.48 L 230.58,713.5 L 230.63,713.52 L 230.67,713.54 L 230.71,713.55 L 230.75,713.56 L 230.79,713.57 L 230.83,713.58 L 230.87,713.59 L 230.91,713.6 L 230.94,713.6 L 230.98,713.61 L 231.01,713.61 L 231.04,713.61 L 231.07,713.62 L 231.1,713.62 L 231.13,713.62 L 231.15,713.62 L 231.17,713.62 L 231.19,713.62 L 231.19,713.93 C 230.88,713.91 230.49,713.9 230.23,713.9 C 229.93,713.9 229.35,713.92 229.09,713.93 L 229.09,713.62 C 229.66,713.61 229.8,713.31 229.8,713.13 C 229.8,713.08 229.8,713.06 229.74,712.93 L 227.78,708.05 L 225.71,713.16 C 225.69,713.2 225.66,713.29 225.66,713.33 C 225.66,713.62 226.19,713.62 226.47,713.62 L 226.47,713.93 C 226.12,713.9 225.41,713.9 225.04,713.9 C 224.56,713.9 224.13,713.92 223.77,713.93 L 223.77,713.62 C 224.54,713.62 224.62,713.58 224.76,713.24 L 227.24,707.1 C 227.3,706.96 227.32,706.9 227.48,706.9 C 227.65,706.9 227.67,706.95 227.73,707.1 L 230.09,712.97 z"
   id="path2577" />
<path
   style="fill:#000000;stroke-width:0"
   d="M 233.4,711.52 L 233.4,711.56 L 233.4,711.59 L 233.4,711.63 L 233.41,711.66 L 233.41,711.69 L 233.41,711.72 L 233.42,711.75 L 233.42,711.77 L 233.43,711.79 L 233.44,711.82 L 233.45,711.84 L 233.46,711.86 L 233.47,711.87 L 233.48,711.89 L 233.5,711.9 L 233.52,711.92 L 233.54,711.93 L 233.56,711.94 L 233.58,711.95 L 233.6,711.95 L 233.61,711.96 L 233.62,711.96 L 233.64,711.96 L 233.65,711.97 L 233.67,711.97 L 233.69,711.97 L 233.71,711.97 L 233.72,711.98 L 233.74,711.98 L 233.76,711.98 L 233.78,711.98 L 233.81,711.99 L 233.83,711.99 L 233.85,711.99 L 233.87,711.99 L 233.9,711.99 L 233.92,711.99 L 233.95,711.99 L 233.98,711.99 L 234.01,711.99 L 234.03,711.99 L 234.06,711.99 L 234.1,711.99 L 234.13,711.99 L 234.16,711.99 L 234.16,712.24 C 233.82,712.23 233.3,712.21 233.04,712.21 C 232.79,712.21 232.27,712.23 231.93,712.24 L 231.93,711.99 C 232.64,711.99 232.69,711.94 232.69,711.52 L 232.69,707.85 C 232.69,707.42 232.64,707.37 231.93,707.37 L 231.93,707.12 C 232.27,707.13 232.79,707.15 233.04,707.15 C 233.3,707.15 233.82,707.13 234.16,707.12 L 234.16,707.37 C 233.45,707.37 233.4,707.42 233.4,707.85 L 233.4,711.52 z"
   id="path2579" />
<path
   style="fill:#000000;stroke-width:0"
   d="M 239.82,709.05 L 239.58,709.05 C 239.41,707.85 239.17,707.37 237.89,707.37 L 236.82,707.37 C 236.47,707.37 236.42,707.4 236.42,707.8 L 236.42,709.64 L 237.12,709.64 C 237.85,709.64 237.97,709.44 237.97,708.78 L 238.22,708.78 L 238.22,710.76 L 237.97,710.76 C 237.97,710.09 237.85,709.89 237.12,709.89 L 236.42,709.89 L 236.42,711.54 C 236.42,711.93 236.47,711.96 236.82,711.96 L 237.83,711.96 C 238.99,711.96 239.25,711.62 239.36,710.53 L 239.61,710.53 L 239.42,712.21 L 234.98,712.21 L 234.98,711.96 C 235.65,711.96 235.7,711.91 235.7,711.5 L 235.7,707.84 C 235.7,707.43 235.65,707.37 234.98,707.37 L 234.98,707.12 L 239.54,707.12 L 239.82,709.05 z"
   id="path2581" />
<path
   style="fill:#000000;stroke-width:0"
   d="M 247.41,711.28 L 247.43,711.33 L 247.44,711.37 L 247.46,711.42 L 247.48,711.46 L 247.5,711.5 L 247.52,711.54 L 247.54,711.58 L 247.56,711.61 L 247.58,711.65 L 247.61,711.68 L 247.63,711.71 L 247.65,711.74 L 247.67,711.76 L 247.7,711.79 L 247.72,711.81 L 247.75,711.83 L 247.77,711.85 L 247.8,711.87 L 247.82,711.88 L 247.85,711.9 L 247.88,711.91 L 247.9,711.93 L 247.93,711.94 L 247.96,711.95 L 247.99,711.96 L 248.02,711.97 L 248.05,711.97 L 248.08,711.98 L 248.11,711.98 L 248.14,711.99 L 248.17,711.99 L 248.21,711.99 L 248.21,712.24 C 247.99,712.22 247.74,712.21 247.53,712.21 C 247.3,712.21 246.84,712.23 246.66,712.24 L 246.66,711.99 C 247.1,711.97 247.19,711.67 247.19,711.51 C 247.19,711.4 247.15,711.29 247.14,711.26 L 246,708.05 L 244.78,711.5 C 244.73,711.63 244.73,711.65 244.73,711.71 C 244.73,711.99 245.08,711.99 245.27,711.99 L 245.27,712.24 C 244.97,712.23 244.47,712.21 244.22,712.21 C 244.03,712.21 243.59,712.22 243.32,712.24 L 243.32,711.99 C 243.7,711.99 243.81,711.96 243.91,711.8 C 243.99,711.7 244.13,711.26 244.13,711.24 C 244.13,711.23 244.13,711.21 244.09,711.11 L 243,708.05 L 241.78,711.52 C 241.77,711.56 241.73,711.65 241.73,711.71 C 241.73,711.99 242.11,711.99 242.28,711.99 L 242.28,712.24 C 241.98,712.23 241.48,712.21 241.23,712.21 C 241.04,712.21 240.6,712.22 240.33,712.24 L 240.33,711.99 C 240.76,711.99 240.88,711.95 240.99,711.66 L 242.58,707.2 C 242.62,707.09 242.65,707.01 242.77,707.01 C 242.9,707.01 242.93,707.1 242.97,707.2 L 244.27,710.86 L 245.55,707.23 C 245.6,707.09 245.63,707.01 245.76,707.01 C 245.89,707.01 245.91,707.07 245.96,707.21 L 247.41,711.28 z"
   id="path2583" />
<path
   style="fill:#000000;stroke-width:0"
   d="M 252.04,704.73 L 252.04,704.74 L 252.04,704.74 L 252.03,704.75 L 252.03,704.75 L 252.03,704.76 L 252.03,704.76 L 252.03,704.76 L 252.03,704.76 L 252.03,704.77 L 252.03,704.77 L 252.03,704.77 L 252.03,704.78 L 252.03,704.78 L 252.02,704.78 L 252.02,704.78 L 252.02,704.79 L 252.02,704.79 L 252.02,704.79 L 252.02,704.8 L 252.02,704.8 L 252.01,704.8 L 252.01,704.8 L 252.01,704.81 L 252.01,704.81 L 252,704.81 L 252,704.82 L 252,704.82 L 252,704.82 C 251.55,705.24 250.19,706.51 250.19,709.61 C 250.19,712.67 251.48,713.92 252,714.41 C 252.02,714.43 252.04,714.46 252.04,714.49 C 252.04,714.57 252,714.59 251.94,714.59 C 251.81,714.59 251.32,714.12 251.15,713.93 C 250.11,712.8 249.62,711.23 249.62,709.61 C 249.62,706.14 251.81,704.63 251.94,704.63 C 252,704.63 252.04,704.66 252.04,704.73 z"
   id="path2585" />
<path
   style="fill:#000000;stroke-width:0"
   d="M 255.39,713.75 L 255.38,713.76 L 255.38,713.78 L 255.37,713.79 L 255.36,713.81 L 255.36,713.82 L 255.35,713.83 L 255.34,713.84 L 255.34,713.85 L 255.33,713.86 L 255.32,713.87 L 255.32,713.88 L 255.31,713.88 L 255.3,713.89 L 255.29,713.9 L 255.28,713.9 L 255.27,713.9 L 255.26,713.91 L 255.25,713.91 L 255.24,713.91 L 255.23,713.92 L 255.22,713.92 L 255.21,713.92 L 255.2,713.92 L 255.18,713.92 L 255.17,713.93 L 255.15,713.93 L 255.14,713.93 L 255.12,713.93 L 255.11,713.93 L 255.09,713.93 L 255.07,713.93 L 255.05,713.93 L 253.37,713.93 L 253.37,713.62 L 253.61,713.62 C 254.37,713.62 254.39,713.51 254.39,713.15 L 254.39,708.17 C 254.39,707.9 254.39,707.43 253.37,707.43 L 253.37,707.12 C 253.72,707.13 254.21,707.15 254.53,707.15 C 254.86,707.15 255.35,707.13 255.7,707.12 L 255.7,707.43 C 254.67,707.43 254.67,707.9 254.67,708.17 L 254.67,713.56 L 254.68,713.57 L 257.23,707.3 C 257.27,707.21 257.32,707.12 257.42,707.12 C 257.52,707.12 257.57,707.21 257.61,707.3 L 260.19,713.64 L 260.2,713.63 L 260.2,707.9 C 260.2,707.54 260.18,707.43 259.42,707.43 L 259.18,707.43 L 259.18,707.12 C 259.55,707.15 260.22,707.15 260.61,707.15 C 261,707.15 261.67,707.15 262.04,707.12 L 262.04,707.43 L 261.8,707.43 C 261.03,707.43 261.01,707.54 261.01,707.9 L 261.01,713.15 C 261.01,713.51 261.03,713.62 261.8,713.62 L 262.04,713.62 L 262.04,713.93 L 260.35,713.93 C 260.12,713.93 260.09,713.93 260.01,713.74 L 257.7,708.07 L 255.39,713.75 z"
   id="path2587" />
<path
   style="fill:#000000;stroke-width:0"
   d="M 264.62,707.31 L 264.62,707.31 L 264.62,707.3 L 264.63,707.3 L 264.63,707.29 L 264.63,707.29 L 264.63,707.28 L 264.63,707.28 L 264.63,707.27 L 264.63,707.26 L 264.64,707.26 L 264.64,707.25 L 264.64,707.24 L 264.64,707.23 L 264.64,707.23 L 264.64,707.22 L 264.64,707.22 L 264.64,707.21 L 264.64,707.21 L 264.64,707.2 L 264.64,707.19 L 264.64,707.19 L 264.64,707.18 L 264.64,707.17 L 264.64,707.17 L 264.64,707.16 L 264.64,707.15 L 264.64,707.14 L 264.64,707.13 C 264.64,706.16 264.03,705.55 263.92,705.44 C 263.82,705.36 263.82,705.35 263.82,705.31 C 263.82,705.25 263.87,705.2 263.93,705.2 C 264.04,705.2 264.86,705.97 264.86,707.13 C 264.86,707.69 264.66,708.18 264.21,708.18 C 263.86,708.18 263.68,707.91 263.68,707.65 C 263.68,707.39 263.85,707.12 264.21,707.12 C 264.25,707.12 264.48,707.12 264.62,707.31 z"
   id="path2589" />
<path
   style="fill:#000000;stroke-width:0"
   d="M 276.68,713.91 L 276.68,713.92 L 276.68,713.94 L 276.68,713.95 L 276.68,713.97 L 276.68,713.98 L 276.68,713.99 L 276.68,714 L 276.68,714.02 L 276.68,714.03 L 276.68,714.04 L 276.68,714.05 L 276.68,714.06 L 276.68,714.07 L 276.67,714.07 L 276.67,714.08 L 276.67,714.09 L 276.67,714.1 L 276.66,714.1 L 276.66,714.11 L 276.66,714.11 L 276.65,714.12 L 276.65,714.12 L 276.64,714.13 L 276.64,714.13 L 276.63,714.14 L 276.62,714.14 L 276.62,714.14 L 276.61,714.14 L 276.6,714.14 L 276.59,714.15 L 276.58,714.15 L 276.57,714.15 C 276.53,714.15 276.49,714.15 276.41,714.03 L 275.9,713.26 C 275.57,713.6 274.96,714.15 273.93,714.15 C 271.97,714.15 270.3,712.55 270.3,710.53 C 270.3,708.5 271.97,706.9 273.94,706.9 C 275.63,706.9 276.68,708.26 276.68,709.44 C 276.68,709.54 276.68,709.61 276.55,709.61 C 276.44,709.61 276.44,709.55 276.43,709.45 C 276.36,708.01 275.19,707.21 274.07,707.21 C 273.2,707.21 271.32,707.73 271.32,710.52 C 271.32,713.46 273.37,713.84 274.05,713.84 C 275.12,713.84 276.14,713.01 276.36,711.48 C 276.38,711.34 276.39,711.31 276.52,711.31 C 276.68,711.31 276.68,711.34 276.68,711.55 L 276.68,713.91 z"
   id="path2591" />
<path
   style="fill:#000000;stroke-width:0"
   d="M 280.56,709.61 L 280.56,709.77 L 280.55,709.93 L 280.54,710.09 L 280.53,710.24 L 280.5,710.54 L 280.46,710.83 L 280.41,711.1 L 280.35,711.37 L 280.29,711.62 L 280.21,711.86 L 280.13,712.09 L 280.04,712.31 L 279.95,712.52 L 279.86,712.72 L 279.76,712.91 L 279.65,713.09 L 279.55,713.25 L 279.44,713.41 L 279.34,713.56 L 279.23,713.69 L 279.13,713.82 L 279.03,713.94 L 278.93,714.04 L 278.83,714.14 L 278.74,714.23 L 278.65,714.31 L 278.57,714.37 L 278.5,714.43 L 278.44,714.48 L 278.38,714.52 L 278.33,714.55 L 278.29,714.58 L 278.26,714.59 L 278.25,714.59 C 278.18,714.59 278.14,714.55 278.14,714.49 C 278.14,714.46 278.18,714.41 278.19,714.4 C 279.03,713.61 279.98,712.24 279.98,709.61 C 279.98,708.89 279.91,707.98 279.57,706.96 C 279.16,705.76 278.53,705.15 278.18,704.82 C 278.16,704.79 278.14,704.76 278.14,704.73 C 278.14,704.67 278.18,704.63 278.25,704.63 C 278.35,704.63 280.56,706.12 280.56,709.61 z"
   id="path2593" />
</g>    <rect
       style="fill:none;fill-opacity:1;stroke:#000000;stroke-width:0.99000001;stroke-linecap:round;stroke-linejoin:miter;stroke-miterlimit:4;stroke-dasharray:none;stroke-dashoffset:0;stroke-opacity:1"
       id="rect3491"
       width="312.40039"
       height="85.338646"
       x="353.54581"
       y="510.50797"
       ry="35.049801" />
  </g>
  <rect
     ry="35.014278"
     y="140.24168"
     x="324.63412"
     height="83.729797"
     width="458.61026"
     id="rect3489"
     style="fill:none;fill-opacity:1;stroke:#000000;stroke-width:1.07494915;stroke-linecap:round;stroke-linejoin:miter;stroke-miterlimit:4;stroke-dasharray:none;stroke-dashoffset:0;stroke-opacity:1" />
  <path
     sodipodi:nodetypes="ccc"
     id="path3542"
     d="M 761.95219,141.72311 C 928.72242,21.360577 700.16622,37.324802 502.88845,35.049801 C 262.67764,34.875967 199.10203,70.788893 336.78287,147.81873"
     style="fill:none;fill-rule:evenodd;stroke:#000000;stroke-width:0.99000001;stroke-linecap:butt;stroke-linejoin:miter;marker-end:url(#Arrow1Lend);stroke-miterlimit:4;stroke-dasharray:none;stroke-opacity:1" />
  <g
     ns0:preamble="/home/neelk/job-talk/inkscape-commands.tex"
     ns0:text="\\textsc{State}"
     word-spacing="normal"
     letter-spacing="normal"
     font-size-adjust="none"
     font-stretch="normal"
     font-weight="normal"
     font-variant="normal"
     font-style="normal"
     fill-rule="even-odd"
     stroke-miterlimit="10.433"
     xml:space="preserve"
     transform="matrix(3,0,0,-3,-196.7158,2190.5677)"
     id="g4373"
     style="font-style:normal;font-variant:normal;font-weight:normal;font-stretch:normal;letter-spacing:normal;word-spacing:normal;text-anchor:start;fill:none;fill-opacity:1;stroke:#000000;stroke-linecap:butt;stroke-linejoin:miter;stroke-miterlimit:10.43299961;stroke-dasharray:none;stroke-dashoffset:0;stroke-opacity:1">
<path
   id="path4375"
   d="M 225.86,711.31 L 225.78,711.33 L 225.71,711.35 L 225.64,711.38 L 225.57,711.41 L 225.5,711.44 L 225.44,711.47 L 225.38,711.5 L 225.33,711.54 L 225.28,711.58 L 225.23,711.62 L 225.18,711.66 L 225.14,711.7 L 225.1,711.74 L 225.07,711.79 L 225.03,711.83 L 225,711.88 L 224.97,711.92 L 224.94,711.97 L 224.92,712.02 L 224.9,712.06 L 224.88,712.11 L 224.86,712.15 L 224.85,712.2 L 224.83,712.24 L 224.82,712.29 L 224.81,712.33 L 224.8,712.37 L 224.8,712.41 L 224.79,712.45 L 224.79,712.49 L 224.79,712.53 L 224.79,712.56 C 224.79,713.24 225.35,713.87 226.2,713.87 C 227.58,713.87 228.1,712.86 228.24,711.84 C 228.26,711.72 228.26,711.66 228.37,711.66 C 228.5,711.66 228.5,711.72 228.5,711.91 L 228.5,713.91 C 228.5,714.08 228.5,714.15 228.39,714.15 C 228.32,714.15 228.32,714.14 228.24,714.02 L 227.88,713.43 C 227.61,713.7 227.15,714.15 226.19,714.15 C 225.04,714.15 224.15,713.27 224.15,712.21 C 224.15,711.58 224.49,711.13 224.62,710.98 C 225.09,710.49 225.38,710.42 226.21,710.22 C 226.37,710.18 226.54,710.15 226.7,710.11 C 227.29,709.97 227.49,709.92 227.8,709.58 C 227.86,709.51 228.15,709.17 228.15,708.64 C 228.15,707.93 227.63,707.21 226.72,707.21 C 226.3,707.21 225.63,707.29 225.09,707.72 C 224.44,708.23 224.41,708.96 224.4,709.29 C 224.39,709.36 224.33,709.38 224.28,709.38 C 224.15,709.38 224.15,709.31 224.15,709.14 L 224.15,707.14 C 224.15,706.97 224.15,706.9 224.26,706.9 C 224.33,706.9 224.35,706.93 224.41,707.02 L 224.78,707.62 C 225.06,707.33 225.7,706.9 226.73,706.9 C 227.98,706.9 228.79,707.91 228.79,708.97 C 228.79,709.76 228.31,710.71 227.22,710.98 L 225.86,711.31 z"
   style="fill:#000000;stroke-width:0" />
<path
   id="path4377"
   d="M 234.91,712.18 L 230.02,712.18 L 229.88,710.5 L 230.13,710.5 C 230.22,711.76 230.42,711.93 231.52,711.93 C 232.08,711.93 232.11,711.93 232.11,711.51 L 232.11,707.88 C 232.11,707.48 232.07,707.37 231.31,707.37 L 231.1,707.37 L 231.1,707.12 C 231.49,707.15 232.07,707.15 232.47,707.15 C 232.87,707.15 233.46,707.15 233.85,707.12 L 233.85,707.37 L 233.64,707.37 C 232.87,707.37 232.83,707.48 232.83,707.88 L 232.83,711.51 C 232.83,711.93 232.86,711.93 233.42,711.93 C 234.49,711.93 234.71,711.77 234.8,710.5 L 235.05,710.5 L 234.91,712.18 z"
   style="fill:#000000;stroke-width:0" />
<path
   id="path4379"
   d="M 238.02,712.19 L 238.01,712.21 L 238.01,712.22 L 238,712.24 L 238,712.25 L 237.99,712.26 L 237.99,712.27 L 237.98,712.28 L 237.98,712.29 L 237.97,712.31 L 237.96,712.31 L 237.96,712.32 L 237.95,712.33 L 237.95,712.34 L 237.94,712.35 L 237.94,712.36 L 237.93,712.36 L 237.92,712.37 L 237.92,712.38 L 237.91,712.38 L 237.9,712.39 L 237.9,712.39 L 237.89,712.39 L 237.88,712.4 L 237.87,712.4 L 237.87,712.4 L 237.86,712.41 L 237.85,712.41 L 237.84,712.41 L 237.83,712.41 L 237.82,712.41 L 237.81,712.41 L 237.8,712.41 C 237.66,712.41 237.64,712.35 237.59,712.22 L 235.99,708.11 C 235.88,707.84 235.71,707.39 235.08,707.37 L 235.08,707.12 C 235.3,707.14 235.59,707.15 235.81,707.15 C 235.98,707.15 236.44,707.13 236.63,707.12 L 236.63,707.37 C 236.22,707.39 236.19,707.73 236.19,707.82 C 236.19,707.9 236.19,707.92 236.53,708.81 L 236.62,709.05 L 237.56,711.46 L 238.49,709.05 L 236.62,709.05 L 236.53,708.81 L 238.59,708.81 L 238.81,708.25 C 238.89,708.05 239.02,707.71 239.02,707.65 C 239.02,707.37 238.66,707.37 238.49,707.37 L 238.49,707.12 C 238.76,707.13 239.35,707.15 239.54,707.15 C 239.88,707.15 240.27,707.13 240.51,707.12 L 240.51,707.37 C 239.95,707.37 239.86,707.42 239.73,707.77 L 238.02,712.19 z"
   style="fill:#000000;stroke-width:0" />
<path
   id="path4381"
   d="M 245.59,712.18 L 240.69,712.18 L 240.55,710.5 L 240.8,710.5 C 240.89,711.76 241.09,711.93 242.2,711.93 C 242.76,711.93 242.79,711.93 242.79,711.51 L 242.79,707.88 C 242.79,707.48 242.74,707.37 241.98,707.37 L 241.77,707.37 L 241.77,707.12 C 242.16,707.15 242.74,707.15 243.14,707.15 C 243.54,707.15 244.13,707.15 244.52,707.12 L 244.52,707.37 L 244.31,707.37 C 243.54,707.37 243.5,707.48 243.5,707.88 L 243.5,711.51 C 243.5,711.93 243.53,711.93 244.09,711.93 C 245.17,711.93 245.39,711.77 245.48,710.5 L 245.72,710.5 L 245.59,712.18 z"
   style="fill:#000000;stroke-width:0" />
<path
   id="path4383"
   d="M 251.35,709.05 L 251.1,709.05 C 250.93,707.85 250.7,707.37 249.42,707.37 L 248.34,707.37 C 247.99,707.37 247.95,707.4 247.95,707.8 L 247.95,709.64 L 248.64,709.64 C 249.38,709.64 249.5,709.44 249.5,708.78 L 249.75,708.78 L 249.75,710.76 L 249.5,710.76 C 249.5,710.09 249.38,709.89 248.64,709.89 L 247.95,709.89 L 247.95,711.54 C 247.95,711.93 247.99,711.96 248.34,711.96 L 249.36,711.96 C 250.52,711.96 250.77,711.62 250.88,710.53 L 251.13,710.53 L 250.94,712.21 L 246.51,712.21 L 246.51,711.96 C 247.18,711.96 247.23,711.91 247.23,711.5 L 247.23,707.84 C 247.23,707.43 247.18,707.37 246.51,707.37 L 246.51,707.12 L 251.06,707.12 L 251.35,709.05 z"
   style="fill:#000000;stroke-width:0" />
</g>  <path
     style="fill:none;fill-rule:evenodd;stroke:#000000;stroke-width:1px;stroke-linecap:butt;stroke-linejoin:miter;stroke-opacity:1;marker-end:url(#Arrow1Lend)"
     d="M 224.01394,323.06773 L 396.21514,228.58566"
     id="path4460" />
  <path
     style="fill:none;fill-rule:evenodd;stroke:#000000;stroke-width:1px;stroke-linecap:butt;stroke-linejoin:miter;stroke-opacity:1;marker-end:url(#Arrow1Lend)"
     d="M 233.15737,405.35857 L 508.98406,501.36454"
     id="path4462" />
  <path
     style="fill:none;fill-rule:evenodd;stroke:#000000;stroke-width:1px;stroke-linecap:butt;stroke-linejoin:miter;stroke-opacity:1"
     d="M 661.3745,460.21912 L 661.3745,460.21912 z"
     id="path4464" />
  <path
     style="fill:none;fill-rule:evenodd;stroke:#000000;stroke-width:1px;stroke-linecap:butt;stroke-linejoin:miter;stroke-opacity:1;marker-end:url(#Arrow1Lend)"
     d="M 554.7012,227.06175 L 719.28287,460.21912"
     id="path4466" />
  <path
     style="fill:none;fill-rule:evenodd;stroke:#000000;stroke-width:1px;stroke-linecap:butt;stroke-linejoin:miter;marker-end:url(#Arrow1Lend);stroke-opacity:1"
     d="M 18.286853,195.05976 L 100.57769,321.54382"
     id="path6013" />
  <path
     style="fill:none;fill-rule:evenodd;stroke:#000000;stroke-width:1px;stroke-linecap:butt;stroke-linejoin:miter;stroke-opacity:1;marker-end:url(#Arrow1Lend)"
     d="M 714.71116,559.27291 L 844.24303,707.09163"
     id="path6015" />
  <g
     id="g7283"
     transform="matrix(5,0,0,-5,-773.58575,3730.1566)"
     xml:space="preserve"
     stroke-miterlimit="10.433"
     fill-rule="even-odd"
     font-style="normal"
     font-variant="normal"
     font-weight="normal"
     font-stretch="normal"
     font-size-adjust="none"
     letter-spacing="normal"
     word-spacing="normal"
     ns0:text="\\textsc{Model(State, C)}"
     ns0:preamble="/home/neelk/job-talk/inkscape-commands.tex"
     style="font-style:normal;font-variant:normal;font-weight:normal;font-stretch:normal;letter-spacing:normal;word-spacing:normal;text-anchor:start;fill:none;fill-opacity:1;stroke:#000000;stroke-linecap:butt;stroke-linejoin:miter;stroke-miterlimit:10.43299961;stroke-dasharray:none;stroke-dashoffset:0;stroke-opacity:1">
<path
   style="fill:#000000;stroke-width:0"
   d="M 226.04,713.75 L 226.04,713.76 L 226.03,713.78 L 226.02,713.79 L 226.02,713.81 L 226.01,713.82 L 226,713.83 L 226,713.84 L 225.99,713.85 L 225.98,713.86 L 225.98,713.87 L 225.97,713.88 L 225.96,713.88 L 225.95,713.89 L 225.94,713.9 L 225.93,713.9 L 225.93,713.9 L 225.92,713.91 L 225.91,713.91 L 225.9,713.91 L 225.88,713.92 L 225.87,713.92 L 225.86,713.92 L 225.85,713.92 L 225.84,713.92 L 225.82,713.93 L 225.81,713.93 L 225.79,713.93 L 225.78,713.93 L 225.76,713.93 L 225.74,713.93 L 225.72,713.93 L 225.7,713.93 L 224.02,713.93 L 224.02,713.62 L 224.26,713.62 C 225.03,713.62 225.05,713.51 225.05,713.15 L 225.05,708.17 C 225.05,707.9 225.05,707.43 224.02,707.43 L 224.02,707.12 C 224.37,707.13 224.86,707.15 225.19,707.15 C 225.51,707.15 226,707.13 226.35,707.12 L 226.35,707.43 C 225.32,707.43 225.32,707.9 225.32,708.17 L 225.32,713.56 L 225.34,713.57 L 227.89,707.3 C 227.93,707.21 227.98,707.12 228.07,707.12 C 228.18,707.12 228.23,707.21 228.26,707.3 L 230.85,713.64 L 230.85,713.63 L 230.85,707.9 C 230.85,707.54 230.84,707.43 230.07,707.43 L 229.83,707.43 L 229.83,707.12 C 230.2,707.15 230.88,707.15 231.26,707.15 C 231.65,707.15 232.32,707.15 232.69,707.12 L 232.69,707.43 L 232.45,707.43 C 231.68,707.43 231.66,707.54 231.66,707.9 L 231.66,713.15 C 231.66,713.51 231.68,713.62 232.45,713.62 L 232.69,713.62 L 232.69,713.93 L 231,713.93 C 230.77,713.93 230.74,713.93 230.66,713.74 L 228.35,708.07 L 226.04,713.75 z"
   id="path7285" />
<path
   style="fill:#000000;stroke-width:0"
   d="M 239.12,709.66 L 239.11,709.8 L 239.1,709.94 L 239.09,710.07 L 239.06,710.21 L 239.03,710.34 L 239,710.47 L 238.96,710.59 L 238.91,710.71 L 238.85,710.83 L 238.8,710.95 L 238.73,711.07 L 238.66,711.18 L 238.59,711.28 L 238.51,711.39 L 238.43,711.48 L 238.34,711.58 L 238.25,711.67 L 238.15,711.76 L 238.05,711.84 L 237.95,711.91 L 237.84,711.98 L 237.73,712.05 L 237.61,712.11 L 237.49,712.17 L 237.37,712.22 L 237.25,712.26 L 237.12,712.3 L 236.99,712.33 L 236.86,712.35 L 236.73,712.37 L 236.59,712.38 L 236.46,712.38 L 236.46,712.13 C 237.13,712.13 238.26,711.64 238.26,709.77 C 238.26,707.81 237.16,707.24 236.46,707.24 L 236.46,707.24 C 235.75,707.24 234.65,707.81 234.65,709.77 C 234.65,711.65 235.79,712.13 236.46,712.13 L 236.46,712.38 C 234.97,712.38 233.8,711.15 233.8,709.66 C 233.8,708.16 235,706.98 236.46,706.98 C 237.91,706.98 239.12,708.16 239.12,709.66 z"
   id="path7287" />
<path
   style="fill:#000000;stroke-width:0"
   d="M 240.07,712.24 L 240.07,711.99 C 240.73,711.99 240.78,711.93 240.78,711.53 L 240.78,707.84 C 240.78,707.43 240.73,707.37 240.07,707.37 L 240.07,707.12 L 242.87,707.12 C 244.27,707.12 245.33,708.28 245.33,709.64 C 245.33,711.02 244.3,712.24 242.87,712.24 L 242.64,711.99 C 243.49,711.99 243.92,711.53 244.06,711.35 C 244.28,711.07 244.5,710.65 244.5,709.64 C 244.5,708.83 244.35,708.41 244.14,708.09 C 243.98,707.87 243.55,707.37 242.64,707.37 L 241.87,707.37 C 241.52,707.37 241.47,707.4 241.47,707.8 L 241.47,711.57 C 241.47,711.96 241.52,711.99 241.87,711.99 L 242.64,711.99 L 242.87,712.24 L 240.07,712.24 z"
   id="path7289" />
<path
   style="fill:#000000;stroke-width:0"
   d="M 251.1,709.05 L 250.86,709.05 C 250.69,707.85 250.45,707.37 249.17,707.37 L 248.1,707.37 C 247.75,707.37 247.7,707.4 247.7,707.8 L 247.7,709.64 L 248.4,709.64 C 249.13,709.64 249.25,709.44 249.25,708.78 L 249.5,708.78 L 249.5,710.76 L 249.25,710.76 C 249.25,710.09 249.13,709.89 248.4,709.89 L 247.7,709.89 L 247.7,711.54 C 247.7,711.93 247.75,711.96 248.1,711.96 L 249.11,711.96 C 250.27,711.96 250.53,711.62 250.64,710.53 L 250.89,710.53 L 250.7,712.21 L 246.26,712.21 L 246.26,711.96 C 246.93,711.96 246.98,711.91 246.98,711.5 L 246.98,707.84 C 246.98,707.43 246.93,707.37 246.26,707.37 L 246.26,707.12 L 250.82,707.12 L 251.1,709.05 z"
   id="path7291" />
<path
   style="fill:#000000;stroke-width:0"
   d="M 256.11,709.05 L 255.86,709.05 C 255.78,708.26 255.68,707.37 254.28,707.37 L 253.65,707.37 C 253.3,707.37 253.26,707.4 253.26,707.8 L 253.26,711.5 C 253.26,711.99 253.4,711.99 254.15,711.99 L 254.15,712.24 C 253.86,712.23 253.23,712.21 252.93,712.21 C 252.68,712.21 252.18,712.23 251.82,712.24 L 251.82,711.99 C 252.49,711.99 252.54,711.93 252.54,711.53 L 252.54,707.84 C 252.54,707.43 252.49,707.37 251.82,707.37 L 251.82,707.12 L 255.92,707.12 L 256.11,709.05 z"
   id="path7293" />
<path
   style="fill:#000000;stroke-width:0"
   d="M 260.11,704.73 L 260.11,704.74 L 260.11,704.74 L 260.11,704.75 L 260.11,704.75 L 260.11,704.75 L 260.11,704.76 L 260.11,704.76 L 260.11,704.76 L 260.11,704.76 L 260.11,704.77 L 260.11,704.77 L 260.11,704.77 L 260.11,704.78 L 260.1,704.78 L 260.1,704.78 L 260.1,704.78 L 260.1,704.79 L 260.1,704.79 L 260.1,704.79 L 260.09,704.8 L 260.09,704.8 L 260.09,704.8 L 260.09,704.8 L 260.09,704.81 L 260.08,704.81 L 260.08,704.81 L 260.08,704.82 L 260.08,704.82 L 260.07,704.82 C 259.63,705.24 258.27,706.51 258.27,709.61 C 258.27,712.67 259.56,713.92 260.07,714.41 C 260.09,714.43 260.11,714.46 260.11,714.49 C 260.11,714.57 260.07,714.59 260.01,714.59 C 259.89,714.59 259.4,714.12 259.23,713.93 C 258.19,712.8 257.69,711.23 257.69,709.61 C 257.69,706.14 259.89,704.63 260.01,704.63 C 260.07,704.63 260.11,704.66 260.11,704.73 z"
   id="path7295" />
<path
   style="fill:#000000;stroke-width:0"
   d="M 263.28,711.31 L 263.2,711.33 L 263.13,711.35 L 263.05,711.38 L 262.99,711.41 L 262.92,711.44 L 262.86,711.47 L 262.8,711.5 L 262.75,711.54 L 262.7,711.58 L 262.65,711.62 L 262.6,711.66 L 262.56,711.7 L 262.52,711.74 L 262.48,711.79 L 262.45,711.83 L 262.42,711.88 L 262.39,711.92 L 262.36,711.97 L 262.34,712.02 L 262.32,712.06 L 262.3,712.11 L 262.28,712.15 L 262.26,712.2 L 262.25,712.24 L 262.24,712.29 L 262.23,712.33 L 262.22,712.37 L 262.22,712.41 L 262.21,712.45 L 262.21,712.49 L 262.21,712.53 L 262.2,712.56 C 262.2,713.24 262.77,713.87 263.62,713.87 C 264.99,713.87 265.52,712.86 265.66,711.84 C 265.68,711.72 265.68,711.66 265.79,711.66 C 265.92,711.66 265.92,711.72 265.92,711.91 L 265.92,713.91 C 265.92,714.08 265.92,714.15 265.81,714.15 C 265.74,714.15 265.74,714.14 265.66,714.02 L 265.29,713.43 C 265.02,713.7 264.57,714.15 263.61,714.15 C 262.45,714.15 261.57,713.27 261.57,712.21 C 261.57,711.58 261.91,711.13 262.04,710.98 C 262.5,710.49 262.8,710.42 263.63,710.22 C 263.79,710.18 263.96,710.15 264.12,710.11 C 264.71,709.97 264.9,709.92 265.21,709.58 C 265.27,709.51 265.57,709.17 265.57,708.64 C 265.57,707.93 265.04,707.21 264.14,707.21 C 263.72,707.21 263.05,707.29 262.5,707.72 C 261.86,708.23 261.83,708.96 261.82,709.29 C 261.81,709.36 261.75,709.38 261.7,709.38 C 261.57,709.38 261.57,709.31 261.57,709.14 L 261.57,707.14 C 261.57,706.97 261.57,706.9 261.68,706.9 C 261.75,706.9 261.77,706.93 261.83,707.02 L 262.2,707.62 C 262.47,707.33 263.12,706.9 264.15,706.9 C 265.39,706.9 266.21,707.91 266.21,708.97 C 266.21,709.76 265.73,710.71 264.64,710.98 L 263.28,711.31 z"
   id="path7297" />
<path
   style="fill:#000000;stroke-width:0"
   d="M 272.33,712.18 L 267.44,712.18 L 267.3,710.5 L 267.55,710.5 C 267.64,711.76 267.84,711.93 268.94,711.93 C 269.5,711.93 269.53,711.93 269.53,711.51 L 269.53,707.88 C 269.53,707.48 269.49,707.37 268.72,707.37 L 268.51,707.37 L 268.51,707.12 C 268.9,707.15 269.49,707.15 269.89,707.15 C 270.29,707.15 270.88,707.15 271.26,707.12 L 271.26,707.37 L 271.05,707.37 C 270.29,707.37 270.25,707.48 270.25,707.88 L 270.25,711.51 C 270.25,711.93 270.28,711.93 270.83,711.93 C 271.91,711.93 272.13,711.77 272.22,710.5 L 272.47,710.5 L 272.33,712.18 z"
   id="path7299" />
<path
   style="fill:#000000;stroke-width:0"
   d="M 275.44,712.19 L 275.43,712.21 L 275.43,712.22 L 275.42,712.24 L 275.42,712.25 L 275.41,712.26 L 275.4,712.27 L 275.4,712.28 L 275.39,712.29 L 275.39,712.31 L 275.38,712.31 L 275.38,712.32 L 275.37,712.33 L 275.37,712.34 L 275.36,712.35 L 275.35,712.36 L 275.35,712.36 L 275.34,712.37 L 275.33,712.38 L 275.33,712.38 L 275.32,712.39 L 275.31,712.39 L 275.31,712.39 L 275.3,712.4 L 275.29,712.4 L 275.28,712.4 L 275.27,712.41 L 275.27,712.41 L 275.26,712.41 L 275.25,712.41 L 275.24,712.41 L 275.23,712.41 L 275.22,712.41 C 275.08,712.41 275.06,712.35 275.01,712.22 L 273.4,708.11 C 273.3,707.84 273.13,707.39 272.5,707.37 L 272.5,707.12 C 272.72,707.14 273.01,707.15 273.23,707.15 C 273.39,707.15 273.85,707.13 274.05,707.12 L 274.05,707.37 C 273.63,707.39 273.61,707.73 273.61,707.82 C 273.61,707.9 273.61,707.92 273.94,708.81 L 274.04,709.05 L 274.98,711.46 L 275.91,709.05 L 274.04,709.05 L 273.94,708.81 L 276.01,708.81 L 276.23,708.25 C 276.3,708.05 276.43,707.71 276.43,707.65 C 276.43,707.37 276.08,707.37 275.91,707.37 L 275.91,707.12 C 276.17,707.13 276.76,707.15 276.96,707.15 C 277.3,707.15 277.69,707.13 277.93,707.12 L 277.93,707.37 C 277.37,707.37 277.28,707.42 277.15,707.77 L 275.44,712.19 z"
   id="path7301" />
<path
   style="fill:#000000;stroke-width:0"
   d="M 283,712.18 L 278.11,712.18 L 277.97,710.5 L 278.22,710.5 C 278.31,711.76 278.51,711.93 279.61,711.93 C 280.17,711.93 280.2,711.93 280.2,711.51 L 280.2,707.88 C 280.2,707.48 280.16,707.37 279.4,707.37 L 279.19,707.37 L 279.19,707.12 C 279.58,707.15 280.16,707.15 280.56,707.15 C 280.96,707.15 281.55,707.15 281.94,707.12 L 281.94,707.37 L 281.73,707.37 C 280.96,707.37 280.92,707.48 280.92,707.88 L 280.92,711.51 C 280.92,711.93 280.95,711.93 281.51,711.93 C 282.58,711.93 282.8,711.77 282.89,710.5 L 283.14,710.5 L 283,712.18 z"
   id="path7303" />
<path
   style="fill:#000000;stroke-width:0"
   d="M 288.77,709.05 L 288.52,709.05 C 288.35,707.85 288.11,707.37 286.84,707.37 L 285.76,707.37 C 285.41,707.37 285.36,707.4 285.36,707.8 L 285.36,709.64 L 286.06,709.64 C 286.8,709.64 286.92,709.44 286.92,708.78 L 287.17,708.78 L 287.17,710.76 L 286.92,710.76 C 286.92,710.09 286.8,709.89 286.06,709.89 L 285.36,709.89 L 285.36,711.54 C 285.36,711.93 285.41,711.96 285.76,711.96 L 286.78,711.96 C 287.93,711.96 288.19,711.62 288.3,710.53 L 288.55,710.53 L 288.36,712.21 L 283.93,712.21 L 283.93,711.96 C 284.6,711.96 284.65,711.91 284.65,711.5 L 284.65,707.84 C 284.65,707.43 284.6,707.37 283.93,707.37 L 283.93,707.12 L 288.48,707.12 L 288.77,709.05 z"
   id="path7305" />
<path
   style="fill:#000000;stroke-width:0"
   d="M 291.05,707.31 L 291.05,707.31 L 291.05,707.3 L 291.06,707.3 L 291.06,707.29 L 291.06,707.29 L 291.06,707.28 L 291.06,707.28 L 291.06,707.27 L 291.06,707.26 L 291.07,707.26 L 291.07,707.25 L 291.07,707.24 L 291.07,707.23 L 291.07,707.23 L 291.07,707.22 L 291.07,707.22 L 291.07,707.21 L 291.07,707.21 L 291.07,707.2 L 291.07,707.19 L 291.07,707.19 L 291.07,707.18 L 291.07,707.17 L 291.07,707.17 L 291.07,707.16 L 291.07,707.15 L 291.07,707.14 L 291.07,707.13 C 291.07,706.16 290.46,705.55 290.35,705.44 C 290.25,705.36 290.25,705.35 290.25,705.31 C 290.25,705.25 290.3,705.2 290.36,705.2 C 290.47,705.2 291.29,705.97 291.29,707.13 C 291.29,707.69 291.09,708.18 290.64,708.18 C 290.29,708.18 290.11,707.91 290.11,707.65 C 290.11,707.39 290.28,707.12 290.64,707.12 C 290.68,707.12 290.91,707.12 291.05,707.31 z"
   id="path7307" />
<path
   style="fill:#000000;stroke-width:0"
   d="M 303.11,713.91 L 303.11,713.92 L 303.11,713.94 L 303.11,713.95 L 303.11,713.97 L 303.11,713.98 L 303.11,713.99 L 303.11,714 L 303.11,714.02 L 303.11,714.03 L 303.11,714.04 L 303.11,714.05 L 303.11,714.06 L 303.11,714.07 L 303.1,714.07 L 303.1,714.08 L 303.1,714.09 L 303.1,714.1 L 303.09,714.1 L 303.09,714.11 L 303.09,714.11 L 303.08,714.12 L 303.08,714.12 L 303.07,714.13 L 303.07,714.13 L 303.06,714.14 L 303.05,714.14 L 303.05,714.14 L 303.04,714.14 L 303.03,714.14 L 303.02,714.15 L 303.01,714.15 L 303,714.15 C 302.96,714.15 302.92,714.15 302.84,714.03 L 302.33,713.26 C 302,713.6 301.39,714.15 300.36,714.15 C 298.4,714.15 296.73,712.55 296.73,710.53 C 296.73,708.5 298.4,706.9 300.37,706.9 C 302.06,706.9 303.11,708.26 303.11,709.44 C 303.11,709.54 303.11,709.61 302.98,709.61 C 302.87,709.61 302.87,709.55 302.86,709.45 C 302.79,708.01 301.62,707.21 300.5,707.21 C 299.63,707.21 297.75,707.73 297.75,710.52 C 297.75,713.46 299.8,713.84 300.48,713.84 C 301.55,713.84 302.57,713.01 302.8,711.48 C 302.81,711.34 302.82,711.31 302.95,711.31 C 303.11,711.31 303.11,711.34 303.11,711.55 L 303.11,713.91 z"
   id="path7309" />
<path
   style="fill:#000000;stroke-width:0"
   d="M 306.99,709.61 L 306.99,709.77 L 306.98,709.93 L 306.97,710.09 L 306.96,710.24 L 306.93,710.54 L 306.89,710.83 L 306.84,711.1 L 306.78,711.37 L 306.72,711.62 L 306.64,711.86 L 306.56,712.09 L 306.47,712.31 L 306.38,712.52 L 306.29,712.72 L 306.19,712.91 L 306.08,713.09 L 305.98,713.25 L 305.87,713.41 L 305.77,713.56 L 305.66,713.69 L 305.56,713.82 L 305.46,713.94 L 305.36,714.04 L 305.26,714.14 L 305.17,714.23 L 305.08,714.31 L 305,714.37 L 304.93,714.43 L 304.87,714.48 L 304.81,714.52 L 304.76,714.55 L 304.72,714.58 L 304.69,714.59 L 304.68,714.59 C 304.61,714.59 304.57,714.55 304.57,714.49 C 304.57,714.46 304.61,714.41 304.62,714.4 C 305.46,713.61 306.41,712.24 306.41,709.61 C 306.41,708.89 306.34,707.98 306,706.96 C 305.59,705.76 304.96,705.15 304.61,704.82 C 304.59,704.79 304.57,704.76 304.57,704.73 C 304.57,704.67 304.61,704.63 304.68,704.63 C 304.78,704.63 306.99,706.12 306.99,709.61 z"
   id="path7311" />
</g>  <g
     style="font-style:normal;font-variant:normal;font-weight:normal;font-stretch:normal;letter-spacing:normal;word-spacing:normal;text-anchor:start;fill:none;fill-opacity:1;stroke:#000000;stroke-linecap:butt;stroke-linejoin:miter;stroke-miterlimit:10.43299961;stroke-dasharray:none;stroke-dashoffset:0;stroke-opacity:1"
     ns0:preamble="/home/neelk/job-talk/inkscape-commands.tex"
     ns0:text="\\textsc{Input Events}"
     word-spacing="normal"
     letter-spacing="normal"
     font-size-adjust="none"
     font-stretch="normal"
     font-weight="normal"
     font-variant="normal"
     font-style="normal"
     fill-rule="even-odd"
     stroke-miterlimit="10.433"
     xml:space="preserve"
     transform="matrix(3,0,0,-3,-665.4613,2300.8178)"
     id="g7757">
<path
   style="fill:#000000;stroke-width:0"
   id="path7759"
   d="M 225.89,713.15 L 225.89,713.18 L 225.89,713.21 L 225.89,713.24 L 225.9,713.27 L 225.9,713.3 L 225.9,713.33 L 225.9,713.35 L 225.91,713.37 L 225.92,713.4 L 225.92,713.42 L 225.93,713.44 L 225.94,713.46 L 225.96,713.47 L 225.97,713.49 L 225.99,713.5 L 226.01,713.52 L 226.03,713.53 L 226.05,713.54 L 226.06,713.55 L 226.08,713.55 L 226.09,713.56 L 226.11,713.56 L 226.12,713.57 L 226.14,713.57 L 226.15,713.58 L 226.17,713.58 L 226.19,713.59 L 226.21,713.59 L 226.23,713.59 L 226.25,713.6 L 226.27,713.6 L 226.29,713.6 L 226.32,713.6 L 226.34,713.61 L 226.37,713.61 L 226.39,713.61 L 226.42,713.61 L 226.45,713.61 L 226.48,713.61 L 226.51,713.61 L 226.54,713.62 L 226.57,713.62 L 226.6,713.62 L 226.64,713.62 L 226.67,713.62 L 226.71,713.62 L 226.97,713.62 L 226.97,713.93 C 226.62,713.9 225.83,713.9 225.46,713.9 C 225.07,713.9 224.28,713.9 223.93,713.93 L 223.93,713.62 L 224.19,713.62 C 224.98,713.62 225.01,713.51 225.01,713.15 L 225.01,707.9 C 225.01,707.54 224.98,707.43 224.19,707.43 L 223.93,707.43 L 223.93,707.12 C 224.28,707.15 225.07,707.15 225.45,707.15 C 225.83,707.15 226.62,707.15 226.97,707.12 L 226.97,707.43 L 226.71,707.43 C 225.92,707.43 225.89,707.54 225.89,707.9 L 225.89,713.15 z" />
<path
   style="fill:#000000;stroke-width:0"
   id="path7761"
   d="M 229.4,712.11 L 229.39,712.13 L 229.38,712.14 L 229.37,712.15 L 229.37,712.16 L 229.36,712.17 L 229.35,712.17 L 229.35,712.18 L 229.34,712.19 L 229.33,712.2 L 229.33,712.2 L 229.32,712.21 L 229.31,712.21 L 229.31,712.22 L 229.3,712.22 L 229.29,712.22 L 229.29,712.23 L 229.28,712.23 L 229.27,712.23 L 229.26,712.23 L 229.25,712.24 L 229.24,712.24 L 229.23,712.24 L 229.22,712.24 L 229.21,712.24 L 229.2,712.24 L 229.19,712.24 L 229.18,712.24 L 229.16,712.24 L 229.15,712.24 L 229.13,712.24 L 229.12,712.24 L 229.11,712.24 L 229.1,712.24 L 227.9,712.24 L 227.9,711.99 C 228.14,711.99 228.42,711.99 228.62,711.92 L 228.62,708.13 C 228.62,707.9 228.62,707.37 227.9,707.37 L 227.9,707.12 C 228.11,707.13 228.56,707.15 228.76,707.15 C 228.91,707.15 229.37,707.14 229.62,707.12 L 229.62,707.37 C 228.9,707.37 228.9,707.9 228.9,708.13 L 228.9,711.7 L 229,711.58 L 232.13,707.23 C 232.21,707.12 232.24,707.12 232.3,707.12 C 232.44,707.12 232.44,707.19 232.44,707.38 L 232.44,711.24 C 232.44,711.47 232.44,711.99 233.15,711.99 L 233.15,712.24 C 232.94,712.23 232.5,712.21 232.3,712.21 C 232.15,712.21 231.69,712.22 231.44,712.24 L 231.44,711.99 C 232.16,711.99 232.16,711.47 232.16,711.24 L 232.16,708.28 L 229.4,712.11 z" />
<path
   style="fill:#000000;stroke-width:0"
   id="path7763"
   d="M 235.46,709.45 L 235.43,709.68 L 235.43,711.57 C 235.43,711.96 235.48,711.99 235.83,711.99 L 236.52,711.99 C 237.77,711.99 237.77,711.24 237.77,710.84 C 237.77,710.45 237.77,709.68 236.52,709.68 L 235.43,709.68 L 235.46,709.45 L 236.8,709.45 C 237.79,709.45 238.63,710.08 238.63,710.84 C 238.63,711.56 237.87,712.24 236.73,712.24 L 234.03,712.24 L 234.03,711.99 C 234.7,711.99 234.75,711.93 234.75,711.53 L 234.75,707.84 C 234.75,707.43 234.7,707.37 234.03,707.37 L 234.03,707.12 C 234.32,707.13 234.88,707.15 235.1,707.15 C 235.32,707.15 235.88,707.13 236.18,707.12 L 236.18,707.37 C 235.51,707.37 235.46,707.43 235.46,707.84 L 235.46,709.45 z" />
<path
   style="fill:#000000;stroke-width:0"
   id="path7765"
   d="M 243.85,708.9 L 243.85,708.79 L 243.84,708.69 L 243.83,708.59 L 243.81,708.49 L 243.79,708.4 L 243.77,708.31 L 243.74,708.23 L 243.71,708.15 L 243.67,708.07 L 243.63,708 L 243.59,707.93 L 243.54,707.86 L 243.5,707.8 L 243.44,707.74 L 243.39,707.68 L 243.34,707.63 L 243.28,707.58 L 243.22,707.54 L 243.16,707.49 L 243.1,707.45 L 243.04,707.42 L 242.97,707.39 L 242.91,707.36 L 242.84,707.33 L 242.78,707.31 L 242.71,707.29 L 242.64,707.27 L 242.58,707.26 L 242.51,707.25 L 242.44,707.24 L 242.38,707.23 L 242.32,707.23 C 242.02,707.23 241,707.35 241,708.85 L 241,711.53 C 241,711.93 241.05,711.99 241.72,711.99 L 241.72,712.24 C 241.43,712.23 240.86,712.21 240.64,712.21 C 240.42,712.21 239.87,712.23 239.57,712.24 L 239.57,711.99 C 240.24,711.99 240.28,711.93 240.28,711.51 L 240.28,709.34 C 240.28,709.09 240.28,708.73 240.3,708.6 C 240.39,707.79 241.19,706.98 242.3,706.98 C 243.45,706.98 244.09,708 244.1,708.73 L 244.1,711.38 C 244.11,711.78 244.37,711.99 244.82,711.99 L 244.82,712.24 C 244.57,712.22 244.04,712.21 243.98,712.21 C 243.7,712.21 243.41,712.22 243.13,712.24 L 243.13,711.99 C 243.85,711.99 243.85,711.47 243.85,711.24 L 243.85,708.9 z" />
<path
   style="fill:#000000;stroke-width:0"
   id="path7767"
   d="M 250.64,712.18 L 245.75,712.18 L 245.61,710.5 L 245.86,710.5 C 245.95,711.76 246.15,711.93 247.25,711.93 C 247.81,711.93 247.84,711.93 247.84,711.51 L 247.84,707.88 C 247.84,707.48 247.8,707.37 247.03,707.37 L 246.82,707.37 L 246.82,707.12 C 247.21,707.15 247.8,707.15 248.2,707.15 C 248.6,707.15 249.18,707.15 249.57,707.12 L 249.57,707.37 L 249.37,707.37 C 248.6,707.37 248.56,707.48 248.56,707.88 L 248.56,711.51 C 248.56,711.93 248.59,711.93 249.15,711.93 C 250.22,711.93 250.44,711.77 250.53,710.5 L 250.78,710.5 L 250.64,712.18 z" />
<path
   style="fill:#000000;stroke-width:0"
   id="path7769"
   d="M 261.86,709.69 L 261.61,709.69 C 261.36,708.17 261.12,707.43 259.36,707.43 L 257.85,707.43 C 257.38,707.43 257.36,707.5 257.36,707.83 L 257.36,710.49 L 258.34,710.49 C 259.33,710.49 259.46,710.19 259.46,709.32 L 259.71,709.32 L 259.71,711.96 L 259.46,711.96 C 259.46,711.1 259.33,710.8 258.34,710.8 L 257.36,710.8 L 257.36,713.19 C 257.36,713.52 257.38,713.59 257.85,713.59 L 259.28,713.59 C 260.84,713.59 261.16,713.08 261.32,711.66 L 261.57,711.66 L 261.29,713.9 L 255.45,713.9 L 255.45,713.59 L 255.69,713.59 C 256.46,713.59 256.48,713.48 256.48,713.12 L 256.48,707.9 C 256.48,707.54 256.46,707.43 255.69,707.43 L 255.45,707.43 L 255.45,707.12 L 261.44,707.12 L 261.86,709.69 z" />
<path
   style="fill:#000000;stroke-width:0"
   id="path7771"
   d="M 267.3,711.34 L 267.31,711.37 L 267.32,711.39 L 267.34,711.42 L 267.35,711.45 L 267.37,711.47 L 267.38,711.5 L 267.39,711.52 L 267.41,711.54 L 267.44,711.59 L 267.47,711.63 L 267.5,711.67 L 267.53,711.7 L 267.56,711.74 L 267.59,711.77 L 267.62,711.79 L 267.65,711.82 L 267.68,711.84 L 267.71,711.86 L 267.75,711.88 L 267.78,711.9 L 267.81,711.91 L 267.84,711.93 L 267.87,711.94 L 267.9,711.95 L 267.92,711.96 L 267.95,711.96 L 267.98,711.97 L 268,711.98 L 268.03,711.98 L 268.05,711.98 L 268.08,711.99 L 268.1,711.99 L 268.12,711.99 L 268.13,711.99 L 268.15,711.99 L 268.17,711.99 L 268.17,712.24 C 267.96,712.22 267.69,712.21 267.48,712.21 C 267.21,712.21 266.93,712.22 266.66,712.24 L 266.66,711.99 C 267.01,711.96 267.08,711.76 267.08,711.57 C 267.08,711.46 267.05,711.38 267,711.27 L 265.58,707.9 L 264.09,711.49 C 264.01,711.66 264.01,711.68 264.01,711.72 C 264.01,711.99 264.35,711.99 264.52,711.99 L 264.52,712.24 C 264.26,712.23 263.66,712.21 263.47,712.21 C 263.21,712.21 262.81,712.22 262.54,712.24 L 262.54,711.99 C 263.08,711.99 263.14,711.92 263.28,711.6 L 265.14,707.21 C 265.2,707.08 265.22,707.01 265.35,707.01 C 265.49,707.01 265.51,707.07 265.57,707.21 L 267.3,711.34 z" />
<path
   style="fill:#000000;stroke-width:0"
   id="path7773"
   d="M 273.67,709.05 L 273.42,709.05 C 273.25,707.85 273.02,707.37 271.74,707.37 L 270.66,707.37 C 270.32,707.37 270.27,707.4 270.27,707.8 L 270.27,709.64 L 270.96,709.64 C 271.7,709.64 271.82,709.44 271.82,708.78 L 272.07,708.78 L 272.07,710.76 L 271.82,710.76 C 271.82,710.09 271.7,709.89 270.96,709.89 L 270.27,709.89 L 270.27,711.54 C 270.27,711.93 270.32,711.96 270.66,711.96 L 271.68,711.96 C 272.84,711.96 273.1,711.62 273.2,710.53 L 273.45,710.53 L 273.26,712.21 L 268.83,712.21 L 268.83,711.96 C 269.5,711.96 269.55,711.91 269.55,711.5 L 269.55,707.84 C 269.55,707.43 269.5,707.37 268.83,707.37 L 268.83,707.12 L 273.38,707.12 L 273.67,709.05 z" />
<path
   style="fill:#000000;stroke-width:0"
   id="path7775"
   d="M 275.88,712.11 L 275.87,712.13 L 275.87,712.14 L 275.86,712.15 L 275.85,712.16 L 275.85,712.17 L 275.84,712.17 L 275.83,712.18 L 275.82,712.19 L 275.82,712.2 L 275.81,712.2 L 275.81,712.21 L 275.8,712.21 L 275.79,712.22 L 275.79,712.22 L 275.78,712.22 L 275.77,712.23 L 275.76,712.23 L 275.76,712.23 L 275.75,712.23 L 275.74,712.24 L 275.73,712.24 L 275.72,712.24 L 275.71,712.24 L 275.7,712.24 L 275.69,712.24 L 275.67,712.24 L 275.66,712.24 L 275.65,712.24 L 275.63,712.24 L 275.62,712.24 L 275.6,712.24 L 275.59,712.24 L 275.58,712.24 L 274.39,712.24 L 274.39,711.99 C 274.63,711.99 274.91,711.99 275.11,711.92 L 275.11,708.13 C 275.11,707.9 275.11,707.37 274.39,707.37 L 274.39,707.12 C 274.6,707.13 275.05,707.15 275.24,707.15 C 275.39,707.15 275.85,707.14 276.1,707.12 L 276.1,707.37 C 275.39,707.37 275.39,707.9 275.39,708.13 L 275.39,711.7 L 275.48,711.58 L 278.61,707.23 C 278.69,707.12 278.72,707.12 278.78,707.12 C 278.92,707.12 278.92,707.19 278.92,707.38 L 278.92,711.24 C 278.92,711.47 278.92,711.99 279.64,711.99 L 279.64,712.24 C 279.43,712.23 278.98,712.21 278.78,712.21 C 278.63,712.21 278.17,712.22 277.92,712.24 L 277.92,711.99 C 278.64,711.99 278.64,711.47 278.64,711.24 L 278.64,708.28 L 275.88,712.11 z" />
<path
   style="fill:#000000;stroke-width:0"
   id="path7777"
   d="M 285.46,712.18 L 280.57,712.18 L 280.43,710.5 L 280.68,710.5 C 280.77,711.76 280.97,711.93 282.08,711.93 C 282.63,711.93 282.66,711.93 282.66,711.51 L 282.66,707.88 C 282.66,707.48 282.62,707.37 281.86,707.37 L 281.65,707.37 L 281.65,707.12 C 282.04,707.15 282.62,707.15 283.02,707.15 C 283.42,707.15 284.01,707.15 284.4,707.12 L 284.4,707.37 L 284.19,707.37 C 283.42,707.37 283.38,707.48 283.38,707.88 L 283.38,711.51 C 283.38,711.93 283.41,711.93 283.97,711.93 C 285.04,711.93 285.26,711.77 285.35,710.5 L 285.6,710.5 L 285.46,712.18 z" />
<path
   style="fill:#000000;stroke-width:0"
   id="path7779"
   d="M 289.79,712.14 L 289.79,712.16 L 289.79,712.17 L 289.79,712.19 L 289.79,712.2 L 289.79,712.21 L 289.79,712.23 L 289.78,712.24 L 289.78,712.25 L 289.78,712.26 L 289.78,712.27 L 289.78,712.28 L 289.78,712.29 L 289.78,712.3 L 289.78,712.31 L 289.78,712.32 L 289.77,712.32 L 289.77,712.33 L 289.77,712.34 L 289.77,712.34 L 289.76,712.35 L 289.76,712.35 L 289.75,712.36 L 289.75,712.36 L 289.74,712.37 L 289.74,712.37 L 289.73,712.37 L 289.73,712.38 L 289.72,712.38 L 289.71,712.38 L 289.7,712.38 L 289.7,712.38 L 289.69,712.38 C 289.63,712.38 289.62,712.37 289.47,712.15 C 289.42,712.1 289.32,711.95 289.28,711.9 C 288.9,712.26 288.44,712.38 288.03,712.38 C 287.13,712.38 286.47,711.71 286.47,710.93 C 286.47,710.37 286.79,710.04 286.91,709.92 C 287.2,709.62 287.4,709.58 288.32,709.37 C 288.86,709.24 288.96,709.22 289.19,709.02 C 289.24,708.98 289.51,708.71 289.51,708.27 C 289.51,707.77 289.12,707.23 288.43,707.23 C 288.17,707.23 287.63,707.27 287.2,707.62 C 286.76,707.97 286.73,708.46 286.72,708.73 C 286.71,708.81 286.63,708.82 286.6,708.82 C 286.47,708.82 286.47,708.75 286.47,708.57 L 286.47,707.22 C 286.47,707.06 286.47,706.98 286.57,706.98 C 286.63,706.98 286.64,706.99 286.79,707.21 C 286.84,707.26 286.94,707.41 286.98,707.47 C 287.27,707.21 287.78,706.98 288.43,706.98 C 289.4,706.98 290.02,707.75 290.02,708.54 C 290.02,709.16 289.63,709.56 289.63,709.57 C 289.26,709.95 289.1,709.98 288.25,710.18 C 288.04,710.23 287.69,710.31 287.63,710.33 C 287.14,710.53 286.98,710.92 286.98,711.22 C 286.98,711.67 287.38,712.16 288.04,712.16 C 289.31,712.16 289.49,711 289.53,710.68 C 289.55,710.61 289.55,710.55 289.66,710.55 C 289.79,710.55 289.79,710.6 289.79,710.79 L 289.79,712.14 z" />
</g>  <g
     style="font-style:normal;font-variant:normal;font-weight:normal;font-stretch:normal;letter-spacing:normal;word-spacing:normal;text-anchor:start;fill:none;fill-opacity:1;stroke:#000000;stroke-linecap:butt;stroke-linejoin:miter;stroke-miterlimit:10.43299961;stroke-dasharray:none;stroke-dashoffset:0;stroke-opacity:1"
     ns0:preamble="/home/neelk/job-talk/inkscape-commands.tex"
     ns0:text="\\textsc{Window Updates}"
     text-anchor="start"
     word-spacing="normal"
     letter-spacing="normal"
     font-size-adjust="none"
     font-stretch="normal"
     font-weight="normal"
     font-variant="normal"
     font-style="normal"
     fill-opacity="1"
     fill-rule="even-odd"
     fill="none"
     stroke-opacity="1"
     stroke-dashoffset="0"
     stroke-dasharray="none"
     stroke-miterlimit="10.433"
     stroke-linejoin="miter"
     stroke-linecap="butt"
     stroke="black"
     xml:space="preserve"
     transform="matrix(3,0,0,-3,52.231076,2867.1813)"
     id="g8637">
<path
   id="path8639"
   fill="black"
   stroke-width="0"
   d="M233.1,712.92 L233.1,712.95 L233.11,712.97 L233.12,713 L233.13,713.02 L233.15,713.05 L233.16,713.08 L233.17,713.11 L233.19,713.14 L233.2,713.17 L233.22,713.2 L233.24,713.22 L233.26,713.25 L233.28,713.28 L233.3,713.31 L233.33,713.34 L233.35,713.36 L233.38,713.39 L233.41,713.41 L233.45,713.44 L233.48,713.46 L233.52,713.48 L233.56,713.5 L233.6,713.52 L233.65,713.54 L233.69,713.56 L233.74,713.57 L233.8,713.58 L233.85,713.6 L233.88,713.6 L233.91,713.6 L233.95,713.61 L233.98,713.61 L234.01,713.61 L234.04,713.62 L234.08,713.62 L234.11,713.62 V713.93 C233.81,713.91,233.51,713.9,233.21,713.9 C232.92,713.9,232.28,713.92,232.02,713.93 V713.62 C232.56,713.61,232.87,713.38,232.87,713.09 C232.87,713.04,232.87,713.02,232.82,712.89 L231.22,708.23 L229.52,713.17 C229.51,713.21,229.48,713.28,229.48,713.32 C229.48,713.62,230.05,713.62,230.32,713.62 V713.93 C229.96,713.9,229.27,713.9,228.89,713.9 C228.55,713.9,228.12,713.91,227.69,713.93 V713.62 C228.27,713.62,228.4,713.59,228.51,713.41 C228.57,713.31,228.79,712.65,228.79,712.61 C228.79,712.59,228.79,712.58,228.76,712.49 L227.3,708.23 L225.61,713.14 C225.56,713.27,225.56,713.29,225.56,713.32 C225.56,713.62,226.12,713.62,226.4,713.62 V713.93 C226.05,713.9,225.35,713.9,224.98,713.9 C224.6,713.9,224.17,713.92,223.76,713.93 V713.62 C224.36,713.62,224.55,713.62,224.68,713.23 L226.78,707.09 C226.82,706.98,226.84,706.9,226.98,706.9 C227.11,706.9,227.14,706.99,227.18,707.1 L228.93,712.23 L230.7,707.1 C230.74,706.99,230.76,706.9,230.89,706.9 C231.02,706.9,231.04,706.96,231.09,707.1 Z " />
<path
   id="path8641"
   fill="black"
   stroke-width="0"
   d="M236.31,711.52 L236.31,711.56 L236.31,711.59 L236.31,711.63 L236.31,711.66 L236.31,711.69 L236.32,711.72 L236.32,711.75 L236.32,711.77 L236.33,711.79 L236.34,711.82 L236.35,711.84 L236.36,711.86 L236.37,711.87 L236.39,711.89 L236.4,711.9 L236.42,711.92 L236.44,711.93 L236.46,711.94 L236.49,711.95 L236.5,711.95 L236.51,711.96 L236.53,711.96 L236.54,711.96 L236.56,711.97 L236.57,711.97 L236.59,711.97 L236.61,711.97 L236.63,711.98 L236.65,711.98 L236.67,711.98 L236.69,711.98 L236.71,711.99 L236.73,711.99 L236.75,711.99 L236.78,711.99 L236.8,711.99 L236.83,711.99 L236.85,711.99 L236.88,711.99 L236.91,711.99 L236.94,711.99 L236.97,711.99 L237,711.99 L237.03,711.99 L237.06,711.99 V712.24 C236.72,712.23,236.21,712.21,235.95,712.21 C235.69,712.21,235.17,712.23,234.83,712.24 V711.99 C235.54,711.99,235.59,711.94,235.59,711.52 V707.85 C235.59,707.42,235.54,707.37,234.83,707.37 V707.12 C235.17,707.13,235.69,707.15,235.95,707.15 C236.21,707.15,236.72,707.13,237.06,707.12 V707.37 C236.35,707.37,236.31,707.42,236.31,707.85 Z " />
<path
   id="path8643"
   fill="black"
   stroke-width="0"
   d="M239.38,712.11 L239.37,712.13 L239.36,712.14 L239.36,712.15 L239.35,712.16 L239.34,712.17 L239.34,712.17 L239.33,712.18 L239.32,712.19 L239.32,712.2 L239.31,712.2 L239.3,712.21 L239.3,712.21 L239.29,712.22 L239.28,712.22 L239.28,712.22 L239.27,712.23 L239.26,712.23 L239.25,712.23 L239.24,712.23 L239.24,712.24 L239.23,712.24 L239.22,712.24 L239.21,712.24 L239.2,712.24 L239.18,712.24 L239.17,712.24 L239.16,712.24 L239.14,712.24 L239.13,712.24 L239.11,712.24 L239.1,712.24 L239.09,712.24 L239.08,712.24 H237.89 V711.99 C238.12,711.99,238.4,711.99,238.6,711.92 V708.13 C238.6,707.9,238.6,707.37,237.89,707.37 V707.12 C238.1,707.13,238.54,707.15,238.74,707.15 C238.89,707.15,239.35,707.14,239.6,707.12 V707.37 C238.88,707.37,238.88,707.9,238.88,708.13 V711.7 L238.98,711.58 L242.11,707.23 C242.19,707.12,242.22,707.12,242.28,707.12 C242.42,707.12,242.42,707.19,242.42,707.38 V711.24 C242.42,711.47,242.42,711.99,243.14,711.99 V712.24 C242.93,712.23,242.48,712.21,242.28,712.21 C242.13,712.21,241.67,712.22,241.42,712.24 V711.99 C242.14,711.99,242.14,711.47,242.14,711.24 V708.28 Z " />
<path
   id="path8645"
   fill="black"
   stroke-width="0"
   d="M244.02,712.24 V711.99 C244.69,711.99,244.74,711.93,244.74,711.53 V707.84 C244.74,707.43,244.69,707.37,244.02,707.37 V707.12 H246.82 C248.22,707.12,249.28,708.28,249.28,709.64 C249.28,711.02,248.25,712.24,246.82,712.24 L246.59,711.99 C247.45,711.99,247.87,711.53,248.01,711.35 C248.23,711.07,248.45,710.65,248.45,709.64 C248.45,708.83,248.3,708.41,248.09,708.09 C247.93,707.87,247.51,707.37,246.59,707.37 H245.82 C245.47,707.37,245.42,707.4,245.42,707.8 V711.57 C245.42,711.96,245.47,711.99,245.82,711.99 H246.59 L246.82,712.24 Z " />
<path
   id="path8647"
   fill="black"
   stroke-width="0"
   d="M255.62,709.66 L255.61,709.8 L255.6,709.94 L255.59,710.07 L255.56,710.21 L255.53,710.34 L255.5,710.47 L255.46,710.59 L255.41,710.71 L255.35,710.83 L255.3,710.95 L255.23,711.07 L255.16,711.18 L255.09,711.28 L255.01,711.39 L254.93,711.48 L254.84,711.58 L254.75,711.67 L254.65,711.76 L254.55,711.84 L254.45,711.91 L254.34,711.98 L254.23,712.05 L254.11,712.11 L253.99,712.17 L253.87,712.22 L253.75,712.26 L253.62,712.3 L253.49,712.33 L253.36,712.35 L253.23,712.37 L253.09,712.38 L252.96,712.38 V712.13 C253.63,712.13,254.76,711.64,254.76,709.77 C254.76,707.81,253.66,707.24,252.96,707.24 H252.96 C252.25,707.24,251.15,707.81,251.15,709.77 C251.15,711.65,252.29,712.13,252.96,712.13 V712.38 C251.47,712.38,250.3,711.15,250.3,709.66 C250.3,708.16,251.5,706.98,252.96,706.98 C254.41,706.98,255.62,708.16,255.62,709.66 Z " />
<path
   id="path8649"
   fill="black"
   stroke-width="0"
   d="M263.2,711.28 L263.22,711.33 L263.24,711.37 L263.26,711.42 L263.28,711.46 L263.3,711.5 L263.32,711.54 L263.34,711.58 L263.36,711.61 L263.38,711.65 L263.4,711.68 L263.42,711.71 L263.45,711.74 L263.47,711.76 L263.49,711.79 L263.52,711.81 L263.54,711.83 L263.57,711.85 L263.59,711.87 L263.62,711.88 L263.64,711.9 L263.67,711.91 L263.7,711.93 L263.73,711.94 L263.75,711.95 L263.78,711.96 L263.81,711.97 L263.84,711.97 L263.87,711.98 L263.9,711.98 L263.94,711.99 L263.97,711.99 L264,711.99 V712.24 C263.79,712.22,263.53,712.21,263.32,712.21 C263.09,712.21,262.64,712.23,262.45,712.24 V711.99 C262.89,711.97,262.98,711.67,262.98,711.51 C262.98,711.4,262.94,711.29,262.93,711.26 L261.8,708.05 L260.57,711.5 C260.52,711.63,260.52,711.65,260.52,711.71 C260.52,711.99,260.87,711.99,261.06,711.99 V712.24 C260.76,712.23,260.26,712.21,260.02,712.21 C259.83,712.21,259.39,712.22,259.12,712.24 V711.99 C259.5,711.99,259.61,711.96,259.71,711.8 C259.79,711.7,259.92,711.26,259.92,711.24 C259.92,711.23,259.92,711.21,259.89,711.11 L258.8,708.05 L257.57,711.52 C257.56,711.56,257.52,711.65,257.52,711.71 C257.52,711.99,257.9,711.99,258.07,711.99 V712.24 C257.77,712.23,257.27,712.21,257.03,712.21 C256.84,712.21,256.4,712.22,256.13,712.24 V711.99 C256.56,711.99,256.68,711.95,256.79,711.66 L258.37,707.2 C258.41,707.09,258.44,707.01,258.57,707.01 C258.7,707.01,258.73,707.1,258.77,707.2 L260.06,710.86 L261.35,707.23 C261.4,707.09,261.43,707.01,261.56,707.01 C261.69,707.01,261.71,707.07,261.76,707.21 Z " />
<path
   id="path8651"
   fill="black"
   stroke-width="0"
   d="M274.21,709.42 L274.2,709.29 L274.2,709.17 L274.18,709.04 L274.16,708.93 L274.14,708.81 L274.11,708.7 L274.07,708.59 L274.03,708.49 L273.99,708.39 L273.94,708.29 L273.89,708.2 L273.84,708.11 L273.78,708.02 L273.71,707.94 L273.65,707.86 L273.58,707.79 L273.51,707.72 L273.43,707.66 L273.35,707.6 L273.27,707.54 L273.19,707.49 L273.11,707.44 L273.02,707.4 L272.93,707.36 L272.84,707.33 L272.75,707.3 L272.66,707.27 L272.57,707.25 L272.48,707.23 L272.38,707.22 L272.29,707.21 L272.19,707.21 C271.66,707.21,270.45,707.5,270.45,709.37 V713.15 C270.45,713.51,270.47,713.62,271.24,713.62 H271.48 V713.93 C271.13,713.9,270.39,713.9,270.01,713.9 C269.63,713.9,268.89,713.9,268.54,713.93 V713.62 H268.78 C269.54,713.62,269.56,713.51,269.56,713.15 V709.4 C269.56,707.99,270.77,706.9,272.17,706.9 C273.67,706.9,274.52,708.28,274.52,709.26 V712.85 C274.52,713.16,274.52,713.62,275.54,713.62 V713.93 C275.18,713.92,274.7,713.9,274.37,713.9 C274.02,713.9,273.54,713.92,273.18,713.93 V713.62 C274.21,713.62,274.21,713.15,274.21,712.88 Z " />
<path
   id="path8653"
   fill="black"
   stroke-width="0"
   d="M277.98,709.45 L277.95,709.68 V711.57 C277.95,711.96,278,711.99,278.35,711.99 H279.04 C280.29,711.99,280.29,711.24,280.29,710.84 C280.29,710.45,280.29,709.68,279.04,709.68 H277.95 L277.98,709.45 H279.32 C280.31,709.45,281.15,710.08,281.15,710.84 C281.15,711.56,280.39,712.24,279.25,712.24 H276.55 V711.99 C277.21,711.99,277.26,711.93,277.26,711.53 V707.84 C277.26,707.43,277.21,707.37,276.55,707.37 V707.12 C276.83,707.13,277.4,707.15,277.62,707.15 C277.84,707.15,278.4,707.13,278.7,707.12 V707.37 C278.03,707.37,277.98,707.43,277.98,707.84 Z " />
<path
   id="path8655"
   fill="black"
   stroke-width="0"
   d="M282.1,712.24 V711.99 C282.77,711.99,282.82,711.93,282.82,711.53 V707.84 C282.82,707.43,282.77,707.37,282.1,707.37 V707.12 H284.9 C286.31,707.12,287.36,708.28,287.36,709.64 C287.36,711.02,286.34,712.24,284.9,712.24 L284.67,711.99 C285.53,711.99,285.96,711.53,286.1,711.35 C286.32,711.07,286.54,710.65,286.54,709.64 C286.54,708.83,286.39,708.41,286.18,708.09 C286.02,707.87,285.59,707.37,284.67,707.37 H283.91 C283.56,707.37,283.51,707.4,283.51,707.8 V711.57 C283.51,711.96,283.56,711.99,283.91,711.99 H284.67 L284.9,712.24 Z " />
<path
   id="path8657"
   fill="black"
   stroke-width="0"
   d="M290.92,712.19 L290.92,712.21 L290.91,712.22 L290.91,712.24 L290.9,712.25 L290.9,712.26 L290.89,712.27 L290.89,712.28 L290.88,712.29 L290.88,712.31 L290.87,712.31 L290.86,712.32 L290.86,712.33 L290.85,712.34 L290.85,712.35 L290.84,712.36 L290.83,712.36 L290.83,712.37 L290.82,712.38 L290.81,712.38 L290.81,712.39 L290.8,712.39 L290.79,712.39 L290.79,712.4 L290.78,712.4 L290.77,712.4 L290.76,712.41 L290.75,712.41 L290.74,712.41 L290.74,712.41 L290.73,712.41 L290.72,712.41 L290.71,712.41 C290.57,712.41,290.55,712.35,290.5,712.22 L288.89,708.11 C288.78,707.84,288.61,707.39,287.99,707.37 V707.12 C288.2,707.14,288.49,707.15,288.71,707.15 C288.88,707.15,289.34,707.13,289.54,707.12 V707.37 C289.12,707.39,289.09,707.73,289.09,707.82 C289.09,707.9,289.09,707.92,289.43,708.81 L289.53,709.05 L290.47,711.46 L291.39,709.05 H289.53 L289.43,708.81 H291.49 L291.71,708.25 C291.79,708.05,291.92,707.71,291.92,707.65 C291.92,707.37,291.56,707.37,291.39,707.37 V707.12 C291.66,707.13,292.25,707.15,292.45,707.15 C292.79,707.15,293.18,707.13,293.42,707.12 V707.37 C292.86,707.37,292.77,707.42,292.64,707.77 Z " />
<path
   id="path8659"
   fill="black"
   stroke-width="0"
   d="M298.49,712.18 H293.6 L293.46,710.5 H293.71 C293.8,711.76,294,711.93,295.1,711.93 C295.66,711.93,295.69,711.93,295.69,711.51 V707.88 C295.69,707.48,295.65,707.37,294.88,707.37 H294.67 V707.12 C295.06,707.15,295.65,707.15,296.05,707.15 C296.45,707.15,297.04,707.15,297.42,707.12 V707.37 H297.21 C296.45,707.37,296.41,707.48,296.41,707.88 V711.51 C296.41,711.93,296.44,711.93,296.99,711.93 C298.07,711.93,298.29,711.77,298.38,710.5 H298.63 Z " />
<path
   id="path8661"
   fill="black"
   stroke-width="0"
   d="M304.26,709.05 H304.01 C303.84,707.85,303.6,707.37,302.33,707.37 H301.25 C300.9,707.37,300.85,707.4,300.85,707.8 V709.64 H301.55 C302.29,709.64,302.4,709.44,302.4,708.78 H302.65 V710.76 H302.4 C302.4,710.09,302.29,709.89,301.55,709.89 H300.85 V711.54 C300.85,711.93,300.9,711.96,301.25,711.96 H302.27 C303.42,711.96,303.68,711.62,303.79,710.53 H304.04 L303.85,712.21 H299.42 V711.96 C300.08,711.96,300.13,711.91,300.13,711.5 V707.84 C300.13,707.43,300.08,707.37,299.42,707.37 V707.12 H303.97 Z " />
<path
   id="path8663"
   fill="black"
   stroke-width="0"
   d="M308.37,712.14 L308.37,712.16 L308.37,712.17 L308.37,712.19 L308.37,712.2 L308.37,712.21 L308.37,712.23 L308.37,712.24 L308.37,712.25 L308.37,712.26 L308.37,712.27 L308.37,712.28 L308.37,712.29 L308.36,712.3 L308.36,712.31 L308.36,712.32 L308.36,712.32 L308.36,712.33 L308.35,712.34 L308.35,712.34 L308.35,712.35 L308.34,712.35 L308.34,712.36 L308.33,712.36 L308.33,712.37 L308.32,712.37 L308.32,712.37 L308.31,712.38 L308.3,712.38 L308.3,712.38 L308.29,712.38 L308.28,712.38 L308.27,712.38 C308.21,712.38,308.2,712.37,308.05,712.15 C308,712.1,307.9,711.95,307.86,711.9 C307.48,712.26,307.03,712.38,306.62,712.38 C305.71,712.38,305.05,711.71,305.05,710.93 C305.05,710.37,305.37,710.04,305.49,709.92 C305.79,709.62,305.99,709.58,306.91,709.37 C307.44,709.24,307.54,709.22,307.77,709.02 C307.82,708.98,308.09,708.71,308.09,708.27 C308.09,707.77,307.7,707.23,307.02,707.23 C306.76,707.23,306.22,707.27,305.79,707.62 C305.34,707.97,305.31,708.46,305.3,708.73 C305.29,708.81,305.21,708.82,305.18,708.82 C305.05,708.82,305.05,708.75,305.05,708.57 V707.22 C305.05,707.06,305.05,706.98,305.15,706.98 C305.21,706.98,305.22,706.99,305.37,707.21 C305.42,707.26,305.52,707.41,305.56,707.47 C305.85,707.21,306.37,706.98,307.02,706.98 C307.98,706.98,308.6,707.75,308.6,708.54 C308.6,709.16,308.21,709.56,308.21,709.57 C307.84,709.95,307.68,709.98,306.84,710.18 C306.63,710.23,306.28,710.31,306.22,710.33 C305.72,710.53,305.56,710.92,305.56,711.22 C305.56,711.67,305.96,712.16,306.63,712.16 C307.89,712.16,308.07,711,308.11,710.68 C308.13,710.61,308.13,710.55,308.24,710.55 C308.37,710.55,308.37,710.6,308.37,710.79 Z " />
</g></svg>
