<?xml version="1.0" encoding="UTF-8" standalone="no"?>
<!-- Created with Inkscape (http://www.inkscape.org/) -->
<svg
   xmlns:ns0="http://www.iki.fi/pav/software/textext/"
   xmlns:dc="http://purl.org/dc/elements/1.1/"
   xmlns:cc="http://creativecommons.org/ns#"
   xmlns:rdf="http://www.w3.org/1999/02/22-rdf-syntax-ns#"
   xmlns:svg="http://www.w3.org/2000/svg"
   xmlns="http://www.w3.org/2000/svg"
   xmlns:sodipodi="http://sodipodi.sourceforge.net/DTD/sodipodi-0.dtd"
   xmlns:inkscape="http://www.inkscape.org/namespaces/inkscape"
   width="792pt"
   height="612pt"
   id="svg4239"
   sodipodi:version="0.32"
   inkscape:version="0.46"
   sodipodi:docname="separating-conjunction.svg"
   inkscape:output_extension="org.inkscape.output.svg.inkscape">
  <sodipodi:namedview
     inkscape:document-units="in"
     pagecolor="#ffffff"
     bordercolor="#666666"
     borderopacity="1.0"
     inkscape:pageopacity="0.0"
     inkscape:pageshadow="2"
     inkscape:zoom="0.65620915"
     inkscape:cx="495"
     inkscape:cy="509.34166"
     inkscape:current-layer="layer1"
     id="namedview4243"
     showgrid="false"
     inkscape:window-width="1024"
     inkscape:window-height="731"
     inkscape:window-x="0"
     inkscape:window-y="6" />
  <defs
     id="defs4241"><marker
   inkscape:stockid="Arrow1Lend"
   orient="auto"
   refY="0.0"
   refX="0.0"
   id="Arrow1Lend"
   style="overflow:visible;">
  <path
     id="path4951"
     d="M 0.0,0.0 L 5.0,-5.0 L -12.5,0.0 L 5.0,5.0 L 0.0,0.0 z "
     style="fill-rule:evenodd;stroke:#000000;stroke-width:1.0pt;marker-start:none;"
     transform="scale(0.8) rotate(180) translate(12.5,0)" />
</marker>
<marker
   inkscape:stockid="Arrow1Lstart"
   orient="auto"
   refY="0.0"
   refX="0.0"
   id="Arrow1Lstart"
   style="overflow:visible">
  <path
     id="path4948"
     d="M 0.0,0.0 L 5.0,-5.0 L -12.5,0.0 L 5.0,5.0 L 0.0,0.0 z "
     style="fill-rule:evenodd;stroke:#000000;stroke-width:1.0pt;marker-start:none"
     transform="scale(0.8) translate(12.5,0)" />
</marker>
<inkscape:perspective
   id="perspective4248"
   inkscape:persp3d-origin="495 : 255 : 1"
   inkscape:vp_z="990 : 382.5 : 1"
   inkscape:vp_y="0 : 1000 : 0"
   inkscape:vp_x="0 : 382.5 : 1"
   sodipodi:type="inkscape:persp3d" />




</defs>
  <metadata
     id="metadata4245">
    <rdf:RDF>
      <cc:Work
         rdf:about="">
        <dc:format>image/svg+xml</dc:format>
        <dc:type
           rdf:resource="http://purl.org/dc/dcmitype/StillImage" />
      </cc:Work>
    </rdf:RDF>
  </metadata>
  <g
     id="layer1"
     inkscape:groupmode="layer"
     inkscape:label="Layer 1">
    <g
       style="font-style:normal;font-variant:normal;font-weight:normal;font-stretch:normal;letter-spacing:normal;word-spacing:normal;text-anchor:start;fill:none;fill-opacity:1;stroke:#000000;stroke-linecap:butt;stroke-linejoin:miter;stroke-miterlimit:10.43299961;stroke-dasharray:none;stroke-dashoffset:0;stroke-opacity:1"
       id="content"
       transform="matrix(5,0,0,-5,-386.3189,3780.5944)"
       xml:space="preserve"
       stroke-miterlimit="10.433"
       fill-rule="even-odd"
       font-style="normal"
       font-variant="normal"
       font-weight="normal"
       font-stretch="normal"
       font-size-adjust="none"
       letter-spacing="normal"
       word-spacing="normal"
       ns0:text="$P \\land Q$"
       ns0:preamble="/home/neelk/job-talk/inkscape-commands.tex">
<path
   style="fill:#000000;stroke-width:0"
   d="M 226.45,710.27 L 226.49,710.53 L 227.17,713.24 C 227.26,713.59 227.28,713.62 227.71,713.62 L 228.66,713.62 C 229.49,713.62 230.02,713.35 230.02,712.66 C 230.02,712.27 229.82,711.42 229.43,711.06 C 228.93,710.61 228.33,710.53 227.9,710.53 L 226.49,710.53 L 226.45,710.27 L 228.15,710.27 C 229.56,710.27 230.94,711.31 230.94,712.42 C 230.94,713.19 230.29,713.93 228.98,713.93 L 225.75,713.93 C 225.56,713.93 225.46,713.93 225.46,713.74 C 225.46,713.62 225.54,713.62 225.74,713.62 C 225.87,713.62 226.05,713.61 226.17,713.6 C 226.33,713.58 226.39,713.55 226.39,713.44 C 226.39,713.4 226.38,713.37 226.35,713.25 L 225.02,707.9 C 224.92,707.51 224.9,707.43 224.11,707.43 C 223.94,707.43 223.83,707.43 223.83,707.24 C 223.83,707.12 223.95,707.12 223.98,707.12 C 224.26,707.12 224.97,707.15 225.25,707.15 C 225.46,707.15 225.67,707.14 225.88,707.14 C 226.1,707.14 226.32,707.12 226.53,707.12 C 226.6,707.12 226.73,707.12 226.73,707.32 C 226.73,707.43 226.64,707.43 226.45,707.43 C 226.08,707.43 225.8,707.43 225.8,707.61 C 225.8,707.67 225.82,707.72 225.83,707.78 L 226.45,710.27 z"
   id="path4278" />
<path
   style="fill:#000000;stroke-width:0"
   d="M 236.96,712.88 L 236.95,712.9 L 236.94,712.92 L 236.94,712.94 L 236.93,712.95 L 236.92,712.96 L 236.92,712.97 L 236.91,712.98 L 236.91,712.99 L 236.9,713 L 236.9,713 L 236.89,713.01 L 236.88,713.02 L 236.88,713.02 L 236.87,713.03 L 236.86,713.04 L 236.86,713.04 L 236.85,713.05 L 236.84,713.05 L 236.83,713.06 L 236.82,713.06 L 236.81,713.07 L 236.81,713.07 L 236.8,713.07 L 236.79,713.08 L 236.77,713.08 L 236.76,713.08 L 236.75,713.08 L 236.74,713.08 C 236.65,713.08 236.58,713.03 236.52,712.89 L 234.04,707.27 C 233.98,707.15 233.98,707.13 233.98,707.1 C 233.98,706.99 234.07,706.9 234.18,706.9 C 234.25,706.9 234.33,706.92 234.4,707.09 L 236.74,712.39 L 239.08,707.1 C 239.13,706.99 239.17,706.9 239.3,706.9 C 239.41,706.9 239.5,706.99 239.5,707.1 C 239.5,707.13 239.5,707.15 239.44,707.27 L 236.96,712.88 z"
   id="path4280" />
<path
   style="fill:#000000;stroke-width:0"
   d="M 246.64,707.18 L 246.79,707.24 L 246.93,707.31 L 247.07,707.38 L 247.22,707.46 L 247.36,707.54 L 247.49,707.63 L 247.63,707.73 L 247.77,707.83 L 247.9,707.94 L 248.03,708.05 L 248.15,708.17 L 248.27,708.29 L 248.39,708.42 L 248.51,708.55 L 248.62,708.68 L 248.73,708.82 L 248.83,708.97 L 248.93,709.11 L 249.02,709.27 L 249.11,709.42 L 249.19,709.58 L 249.27,709.74 L 249.34,709.9 L 249.4,710.07 L 249.46,710.24 L 249.51,710.41 L 249.55,710.58 L 249.59,710.75 L 249.61,710.93 L 249.64,711.11 L 249.65,711.29 L 249.65,711.47 C 249.65,713.07 248.6,714.15 247.11,714.15 C 244.96,714.15 242.77,711.89 242.77,709.56 C 242.77,707.91 243.88,706.9 245.32,706.9 L 245.38,707.15 C 245.24,707.15 244.92,707.15 244.92,707.58 L 244.7,707.58 C 244.7,707.38 244.76,707.27 244.76,707.26 L 244.76,707.26 C 243.98,707.57 243.65,708.35 243.65,709.24 C 243.65,709.93 243.9,711.35 244.66,712.42 C 245.39,713.44 246.32,713.9 247.05,713.9 C 248.05,713.9 248.78,713.12 248.78,711.78 C 248.78,710.79 248.27,708.46 246.59,707.52 C 246.54,707.87 246.44,708.6 245.72,708.6 C 245.19,708.6 244.7,708.1 244.7,707.58 L 244.92,707.58 C 244.92,707.98 245.3,708.38 245.72,708.38 C 246.14,708.38 246.32,708.14 246.32,707.53 C 246.32,707.38 246.32,707.37 246.21,707.33 C 245.96,707.22 245.66,707.15 245.38,707.15 L 245.38,707.15 L 245.32,706.9 C 245.57,706.9 245.91,706.94 246.29,707.05 C 246.26,706.43 246.26,706.41 246.26,706.29 C 246.26,705.97 246.26,705.19 247.08,705.19 C 248.27,705.19 248.75,707.01 248.75,707.12 C 248.75,707.19 248.68,707.22 248.64,707.22 C 248.56,707.22 248.54,707.17 248.52,707.11 C 248.28,706.41 247.7,706.16 247.35,706.16 C 246.89,706.16 246.74,706.42 246.64,707.18 z"
   id="path4282" />
</g>    <g
       id="g6257">
      <rect
         style="fill:none;fill-opacity:0.19607843;fill-rule:evenodd;stroke:#000000;stroke-width:0.98858267;marker:none;marker-start:none;marker-mid:none;marker-end:none;stroke-miterlimit:4;stroke-dasharray:none;stroke-dashoffset:0;stroke-opacity:1;visibility:visible;display:inline;overflow:visible;enable-background:accumulate"
         id="rect4294"
         width="815.37067"
         height="131.2885"
         x="69.003807"
         y="395.2959"
         ry="65.644249" />
      <path
         style="fill:none;fill-rule:evenodd;stroke:#000000;stroke-width:1px;stroke-linecap:butt;stroke-linejoin:miter;stroke-opacity:1"
         d="M 468.24603,343.4715 C 469.66172,347.71859 460.56833,348.07811 456.72949,350.38142 C 454.01502,352.0101 466.71049,349.61365 465.94272,352.68473 C 459.9218,376.7684 427.9138,372.14109 433.69642,401.05417 C 438.52872,425.21565 488.38233,425.27415 475.15594,451.72693 C 450.83096,500.37692 423.05266,474.57407 495.88571,523.12945 C 526.91089,543.81291 559.3952,554.05555 525.82871,587.62204 C 518.5248,594.92594 511.05906,602.15424 502.79564,608.35181"
         id="path4298" />
      <g
         style="font-style:normal;font-variant:normal;font-weight:normal;font-stretch:normal;letter-spacing:normal;word-spacing:normal;text-anchor:start;fill:none;fill-opacity:1;stroke:#000000;stroke-linecap:butt;stroke-linejoin:miter;stroke-miterlimit:10.43299961;stroke-dasharray:none;stroke-dashoffset:0;stroke-opacity:1"
         id="g4313"
         transform="matrix(5,0,0,-5,-819.66736,4013.5652)"
         xml:space="preserve"
         stroke-miterlimit="10.433"
         fill-rule="even-odd"
         font-style="normal"
         font-variant="normal"
         font-weight="normal"
         font-stretch="normal"
         font-size-adjust="none"
         letter-spacing="normal"
         word-spacing="normal"
         ns0:text="P"
         ns0:preamble="/home/neelk/job-talk/inkscape-commands.tex">
<path
   style="fill:#000000;stroke-width:0"
   d="M 225.69,710.27 L 225.66,710.53 L 225.66,713.22 C 225.66,713.55 225.68,713.62 226.15,713.62 L 227.04,713.62 C 228.62,713.62 228.62,712.56 228.62,712.07 C 228.62,711.61 228.62,710.53 227.04,710.53 L 225.66,710.53 L 225.69,710.27 L 227.38,710.27 C 228.57,710.27 229.65,711.08 229.65,712.07 C 229.65,713.05 228.66,713.93 227.3,713.93 L 223.78,713.93 L 223.78,713.62 L 224.02,713.62 C 224.79,713.62 224.81,713.51 224.81,713.15 L 224.81,707.9 C 224.81,707.54 224.79,707.43 224.02,707.43 L 223.78,707.43 L 223.78,707.12 C 224.13,707.15 224.87,707.15 225.25,707.15 C 225.62,707.15 226.37,707.15 226.72,707.12 L 226.72,707.43 L 226.48,707.43 C 225.71,707.43 225.69,707.54 225.69,707.9 L 225.69,710.27 z"
   id="path4315" />
</g>      <g
         ns0:preamble="/home/neelk/job-talk/inkscape-commands.tex"
         ns0:text="Q"
         word-spacing="normal"
         letter-spacing="normal"
         font-size-adjust="none"
         font-stretch="normal"
         font-weight="normal"
         font-variant="normal"
         font-style="normal"
         fill-rule="even-odd"
         stroke-miterlimit="10.433"
         xml:space="preserve"
         transform="matrix(5,0,0,-5,-497.20436,4009.2902)"
         id="g4345"
         style="font-style:normal;font-variant:normal;font-weight:normal;font-stretch:normal;letter-spacing:normal;word-spacing:normal;text-anchor:start;fill:none;fill-opacity:1;stroke:#000000;stroke-linecap:butt;stroke-linejoin:miter;stroke-miterlimit:10.43299961;stroke-dasharray:none;stroke-dashoffset:0;stroke-opacity:1">
<path
   id="path4347"
   d="M 228.59,707.19 L 228.7,707.24 L 228.81,707.3 L 228.91,707.36 L 229.02,707.42 L 229.12,707.49 L 229.22,707.56 L 229.31,707.64 L 229.41,707.72 L 229.5,707.8 L 229.58,707.89 L 229.67,707.98 L 229.75,708.07 L 229.83,708.17 L 229.9,708.27 L 229.98,708.37 L 230.05,708.48 L 230.11,708.59 L 230.17,708.7 L 230.23,708.81 L 230.29,708.93 L 230.34,709.05 L 230.38,709.17 L 230.43,709.3 L 230.47,709.42 L 230.5,709.55 L 230.53,709.68 L 230.56,709.81 L 230.58,709.95 L 230.59,710.08 L 230.61,710.22 L 230.61,710.36 L 230.62,710.5 C 230.62,712.53 229.11,714.15 227.3,714.15 C 225.51,714.15 223.99,712.55 223.99,710.5 C 223.99,708.49 225.49,706.9 227.31,706.9 L 227.31,707.15 C 226.8,707.15 226.72,707.61 226.72,707.76 L 226.5,707.76 C 226.5,707.49 226.63,707.3 226.64,707.28 L 226.64,707.28 C 226.1,707.48 224.99,708.21 224.99,710.5 C 224.99,713.09 226.38,713.9 227.3,713.9 C 228.26,713.9 229.62,713.04 229.62,710.5 C 229.62,709.72 229.5,708.32 228.44,707.54 C 228.23,708.1 227.91,708.6 227.32,708.6 C 226.81,708.6 226.5,708.17 226.5,707.76 L 226.72,707.76 C 226.72,708.05 226.93,708.38 227.32,708.38 C 227.86,708.38 228.07,707.96 228.18,707.38 L 228.18,707.38 C 227.85,707.19 227.53,707.15 227.31,707.15 L 227.31,706.9 C 227.62,706.9 227.96,706.96 228.25,707.05 C 228.4,706.11 228.54,705.19 229.47,705.19 C 230.49,705.19 230.68,706.52 230.68,707.02 C 230.68,707.12 230.68,707.23 230.57,707.23 C 230.48,707.23 230.47,707.15 230.46,707.05 C 230.4,706.52 229.98,706.22 229.55,706.22 C 229.08,706.22 228.83,706.55 228.59,707.19 z"
   style="fill:#000000;stroke-width:0" />
</g>    </g>
    <g
       ns0:preamble="/home/neelk/job-talk/inkscape-commands.tex"
       ns0:text="$P * Q$"
       word-spacing="normal"
       letter-spacing="normal"
       font-size-adjust="none"
       font-stretch="normal"
       font-weight="normal"
       font-variant="normal"
       font-style="normal"
       fill-rule="even-odd"
       stroke-miterlimit="10.433"
       xml:space="preserve"
       transform="matrix(5,0,0,-5,-378.0189,4155.0795)"
       id="g4381"
       style="font-style:normal;font-variant:normal;font-weight:normal;font-stretch:normal;letter-spacing:normal;word-spacing:normal;text-anchor:start;fill:none;fill-opacity:1;stroke:#000000;stroke-linecap:butt;stroke-linejoin:miter;stroke-miterlimit:10.43299961;stroke-dasharray:none;stroke-dashoffset:0;stroke-opacity:1">
<path
   id="path4383"
   d="M 226.45,710.27 L 226.49,710.53 L 227.17,713.24 C 227.26,713.59 227.28,713.62 227.71,713.62 L 228.66,713.62 C 229.49,713.62 230.02,713.35 230.02,712.66 C 230.02,712.27 229.82,711.42 229.43,711.06 C 228.93,710.61 228.33,710.53 227.9,710.53 L 226.49,710.53 L 226.45,710.27 L 228.15,710.27 C 229.56,710.27 230.94,711.31 230.94,712.42 C 230.94,713.19 230.29,713.93 228.98,713.93 L 225.75,713.93 C 225.56,713.93 225.46,713.93 225.46,713.74 C 225.46,713.62 225.54,713.62 225.74,713.62 C 225.87,713.62 226.05,713.61 226.17,713.6 C 226.33,713.58 226.39,713.55 226.39,713.44 C 226.39,713.4 226.38,713.37 226.35,713.25 L 225.02,707.9 C 224.92,707.51 224.9,707.43 224.11,707.43 C 223.94,707.43 223.83,707.43 223.83,707.24 C 223.83,707.12 223.95,707.12 223.98,707.12 C 224.26,707.12 224.97,707.15 225.25,707.15 C 225.46,707.15 225.67,707.14 225.88,707.14 C 226.1,707.14 226.32,707.12 226.53,707.12 C 226.6,707.12 226.73,707.12 226.73,707.32 C 226.73,707.43 226.64,707.43 226.45,707.43 C 226.08,707.43 225.8,707.43 225.8,707.61 C 225.8,707.67 225.82,707.72 225.83,707.78 L 226.45,710.27 z"
   style="fill:#000000;stroke-width:0" />
<path
   id="path4385"
   d="M 236.02,709.4 L 236.29,709.21 L 236.56,709.01 L 236.83,708.81 L 236.97,708.71 L 237.11,708.62 C 237.23,708.53 237.41,708.4 237.48,708.4 C 237.61,708.4 237.75,708.52 237.75,708.68 C 237.75,708.76 237.71,708.86 237.57,708.93 L 236.12,709.6 L 237.54,710.28 C 237.63,710.32 237.75,710.38 237.75,710.54 C 237.75,710.7 237.61,710.82 237.48,710.82 C 237.44,710.82 237.39,710.81 237.28,710.73 L 236.02,709.8 L 236.16,711.4 C 236.17,711.53 236.16,711.76 235.91,711.76 C 235.75,711.76 235.62,711.63 235.65,711.5 L 235.65,711.39 L 235.79,709.8 L 234.54,710.72 C 234.41,710.81 234.41,710.82 234.34,710.82 C 234.21,710.82 234.07,710.7 234.07,710.54 C 234.07,710.38 234.19,710.32 234.28,710.28 L 235.68,709.61 L 234.28,708.94 C 234.19,708.9 234.07,708.84 234.07,708.68 C 234.07,708.52 234.21,708.4 234.34,708.4 C 234.38,708.4 234.43,708.41 234.54,708.49 L 235.79,709.41 L 235.65,707.78 L 235.65,707.73 C 235.62,707.58 235.76,707.46 235.9,707.46 C 236.17,707.46 236.17,707.69 236.16,707.83 L 236.02,709.4 z"
   style="fill:#000000;stroke-width:0" />
<path
   id="path4387"
   d="M 244.99,707.18 L 245.13,707.24 L 245.27,707.31 L 245.42,707.38 L 245.56,707.46 L 245.7,707.54 L 245.84,707.63 L 245.97,707.73 L 246.11,707.83 L 246.24,707.94 L 246.37,708.05 L 246.49,708.17 L 246.62,708.29 L 246.74,708.42 L 246.85,708.55 L 246.96,708.68 L 247.07,708.82 L 247.17,708.97 L 247.27,709.11 L 247.36,709.27 L 247.45,709.42 L 247.53,709.58 L 247.61,709.74 L 247.68,709.9 L 247.74,710.07 L 247.8,710.24 L 247.85,710.41 L 247.89,710.58 L 247.93,710.75 L 247.96,710.93 L 247.98,711.11 L 247.99,711.29 L 247.99,711.47 C 247.99,713.07 246.94,714.15 245.45,714.15 L 245.4,713.9 C 246.39,713.9 247.12,713.12 247.12,711.78 C 247.12,710.79 246.61,708.46 244.94,707.52 C 244.89,707.87 244.79,708.6 244.06,708.6 L 244.06,708.38 C 244.48,708.38 244.67,708.14 244.67,707.53 C 244.67,707.38 244.66,707.37 244.56,707.33 C 244.3,707.22 244,707.15 243.72,707.15 L 243.72,707.15 C 243.58,707.15 243.26,707.15 243.26,707.58 C 243.26,707.98 243.64,708.38 244.06,708.38 L 244.06,708.6 C 243.53,708.6 243.04,708.1 243.04,707.58 C 243.04,707.38 243.1,707.27 243.1,707.26 L 243.1,707.26 C 242.33,707.57 241.99,708.35 241.99,709.24 C 241.99,709.93 242.25,711.35 243,712.42 C 243.73,713.44 244.67,713.9 245.4,713.9 L 245.45,714.15 C 243.3,714.15 241.11,711.89 241.11,709.56 C 241.11,707.91 242.23,706.9 243.66,706.9 C 243.91,706.9 244.25,706.94 244.64,707.05 C 244.6,706.43 244.6,706.41 244.6,706.29 C 244.6,705.97 244.6,705.19 245.42,705.19 C 246.61,705.19 247.09,707.01 247.09,707.12 C 247.09,707.19 247.02,707.22 246.98,707.22 C 246.9,707.22 246.88,707.17 246.86,707.11 C 246.62,706.41 246.04,706.16 245.69,706.16 C 245.24,706.16 245.09,706.42 244.99,707.18 z"
   style="fill:#000000;stroke-width:0" />
</g>    <g
       id="g6250"
       transform="translate(2.939558e-6,0)">
      <rect
         style="opacity:1;fill:none;fill-opacity:0.19607843;fill-rule:evenodd;stroke:#000000;stroke-width:0.98858267;marker:none;marker-start:none;marker-mid:none;marker-end:none;stroke-miterlimit:4;stroke-dasharray:none;stroke-dashoffset:0;stroke-opacity:1;visibility:visible;display:inline;overflow:visible;enable-background:accumulate"
         id="rect4292"
         width="815.37067"
         height="131.2885"
         x="46.066139"
         y="46.368214"
         ry="65.644249" />
      <path
         id="path4424"
         d="M 293.56026,92.7093 L 293.41026,91.4093 L 293.41026,77.9593 C 293.41026,76.3093 293.51026,75.9593 295.86026,75.9593 L 300.31026,75.9593 C 308.21026,75.9593 308.21026,81.2593 308.21026,83.7093 C 308.21026,86.0093 308.21026,91.4093 300.31026,91.4093 L 293.41026,91.4093 L 293.56026,92.7093 L 302.01026,92.7093 C 307.96026,92.7093 313.36026,88.6593 313.36026,83.7093 C 313.36026,78.8093 308.41026,74.4093 301.61026,74.4093 L 284.01026,74.4093 L 284.01026,75.9593 L 285.21026,75.9593 C 289.06026,75.9593 289.16026,76.5093 289.16026,78.3093 L 289.16026,104.5593 C 289.16026,106.3593 289.06026,106.9093 285.21026,106.9093 L 284.01026,106.9093 L 284.01026,108.4593 C 285.76026,108.3093 289.46026,108.3093 291.36026,108.3093 C 293.21026,108.3093 296.96026,108.3093 298.71026,108.4593 L 298.71026,106.9093 L 297.51026,106.9093 C 293.66026,106.9093 293.56026,106.3593 293.56026,104.5593 L 293.56026,92.7093 z"
         style="font-style:normal;font-variant:normal;font-weight:normal;font-stretch:normal;letter-spacing:normal;word-spacing:normal;text-anchor:start;fill:#000000;fill-opacity:1;stroke:#000000;stroke-width:0;stroke-linecap:butt;stroke-linejoin:miter;stroke-miterlimit:10.43299961;stroke-dasharray:none;stroke-dashoffset:0;stroke-opacity:1" />
      <path
         style="font-style:normal;font-variant:normal;font-weight:normal;font-stretch:normal;letter-spacing:normal;word-spacing:normal;text-anchor:start;fill:#000000;fill-opacity:1;stroke:#000000;stroke-width:0;stroke-linecap:butt;stroke-linejoin:miter;stroke-miterlimit:10.43299961;stroke-dasharray:none;stroke-dashoffset:0;stroke-opacity:1"
         d="M 530.49811,132.7885 L 531.04811,132.5385 L 531.59811,132.2385 L 532.09811,131.9385 L 532.64811,131.6385 L 533.14811,131.2885 L 533.64811,130.9385 L 534.09811,130.5385 L 534.59811,130.1385 L 535.04811,129.7385 L 535.44811,129.2885 L 535.89811,128.8385 L 536.29811,128.3885 L 536.69811,127.8885 L 537.04811,127.3885 L 537.44811,126.8885 L 537.79811,126.3385 L 538.09811,125.7885 L 538.39811,125.2385 L 538.69811,124.6885 L 538.99811,124.0885 L 539.24811,123.4885 L 539.44811,122.8885 L 539.69811,122.2385 L 539.89811,121.6385 L 540.04811,120.9885 L 540.19811,120.3385 L 540.34811,119.6885 L 540.44811,118.9885 L 540.49811,118.3385 L 540.59811,117.6385 L 540.59811,116.9385 L 540.64811,116.2385 C 540.64811,106.0885 533.09811,97.9885 524.04811,97.9885 C 515.09811,97.9885 507.49811,105.9885 507.49811,116.2385 C 507.49811,126.2885 514.99811,134.2385 524.09811,134.2385 L 524.09811,132.9885 C 521.54811,132.9885 521.14811,130.6885 521.14811,129.9385 L 520.04811,129.9385 C 520.04811,131.2885 520.69811,132.2385 520.74811,132.3385 L 520.74811,132.3385 C 518.04811,131.3385 512.49811,127.6885 512.49811,116.2385 C 512.49811,103.2885 519.44811,99.2385 524.04811,99.2385 C 528.84811,99.2385 535.64811,103.5385 535.64811,116.2385 C 535.64811,120.1385 535.04811,127.1385 529.74811,131.0385 C 528.69811,128.2385 527.09811,125.7385 524.14811,125.7385 C 521.59811,125.7385 520.04811,127.8885 520.04811,129.9385 L 521.14811,129.9385 C 521.14811,128.4885 522.19811,126.8385 524.14811,126.8385 C 526.84811,126.8385 527.89811,128.9385 528.44811,131.8385 L 528.44811,131.8385 C 526.79811,132.7885 525.19811,132.9885 524.09811,132.9885 L 524.09811,134.2385 C 525.64811,134.2385 527.34811,133.9385 528.79811,133.4885 C 529.54811,138.1885 530.24811,142.7885 534.89811,142.7885 C 539.99811,142.7885 540.94811,136.1385 540.94811,133.6385 C 540.94811,133.1385 540.94811,132.5885 540.39811,132.5885 C 539.94811,132.5885 539.89811,132.9885 539.84811,133.4885 C 539.54811,136.1385 537.44811,137.6385 535.29811,137.6385 C 532.94811,137.6385 531.69811,135.9885 530.49811,132.7885 z"
         id="path4428" />
      <path
         id="path4434"
         d="M 84.575323,67.051793 L 637.75536,67.051793"
         style="fill:none;fill-rule:evenodd;stroke:#000000;stroke-width:0.99000001;stroke-linecap:butt;stroke-linejoin:miter;marker-start:url(#Arrow1Lstart);marker-end:url(#Arrow1Lend);stroke-miterlimit:4;stroke-dasharray:none;stroke-opacity:1" />
      <path
         id="path6246"
         d="M 247.63309,152.39044 L 800.81312,152.39044"
         style="fill:none;fill-rule:evenodd;stroke:#000000;stroke-width:0.99000001;stroke-linecap:butt;stroke-linejoin:miter;marker-start:url(#Arrow1Lstart);marker-end:url(#Arrow1Lend);stroke-miterlimit:4;stroke-dasharray:none;stroke-opacity:1" />
    </g>
  </g>
</svg>
